<svg width="561" height="426" viewBox="0 0 561 426" fill="none" xmlns="http://www.w3.org/2000/svg">
<path d="M367.985 153.779C371.027 35.9423 205.933 -9.593 99.5121 152.753C-6.90873 315.099 413.132 432.098 461.05 305.306C508.969 178.515 364.943 271.616 367.985 153.779Z" fill="#F9DDB2"/>
<path d="M414.122 210.09L412.828 234.756C412.678 237.605 414.867 240.036 417.716 240.185L494.51 244.216C497.358 244.365 499.789 242.177 499.939 239.328L500.764 223.597C500.914 220.748 498.725 218.317 495.877 218.168L457.299 216.143C455.26 216.036 453.476 214.739 452.745 212.832L451.645 209.959C450.915 208.052 449.131 206.755 447.092 206.648L419.552 205.202C416.703 205.053 414.272 207.241 414.122 210.09Z" fill="#ED9117"/>
<rect x="417.419" y="216.841" width="77.5595" height="21.8454" rx="2.58276" transform="rotate(3.00423 417.419 216.841)" fill="white"/>
<rect x="417.289" y="219.326" width="77.5595" height="21.8454" rx="2.58276" transform="rotate(3.00423 417.289 219.326)" fill="#E6E6E6"/>
<path d="M492.047 295.392L414.699 291.333C412.183 291.201 410.129 289.272 409.839 286.769L404.187 238.018C403.819 234.842 406.396 232.098 409.589 232.265L436.191 233.661C437.886 233.75 439.515 233.002 440.552 231.658L444.693 226.292C445.729 224.949 447.359 224.2 449.053 224.289L504.093 227.177C507.236 227.342 509.502 230.256 508.889 233.343L497.384 291.24C496.884 293.758 494.61 295.527 492.047 295.392Z" fill="#F2B151"/>
<g filter="url(#filter0_d_1427_50028)">
<rect x="405.898" y="290.147" width="95.6062" height="27.8031" rx="13.9016" fill="white" shape-rendering="crispEdges"/>
<path d="M421.346 308.549C424.209 308.549 426.181 306.537 426.181 303.633C426.181 300.69 424.168 298.677 421.252 298.677H417.795V308.549H421.346ZM421.09 300.271C423.129 300.271 424.358 301.54 424.358 303.633C424.358 305.686 423.156 306.955 421.184 306.955H419.523V300.271H421.09ZM427.362 305.2C427.362 307.279 428.861 308.711 430.927 308.711C432.993 308.711 434.492 307.279 434.492 305.2C434.492 303.12 432.993 301.689 430.927 301.689C428.861 301.689 427.362 303.12 427.362 305.2ZM429.01 305.2C429.01 303.985 429.793 303.161 430.927 303.161C432.061 303.161 432.845 303.985 432.845 305.2C432.845 306.415 432.061 307.239 430.927 307.239C429.793 307.239 429.01 306.415 429.01 305.2ZM435.613 305.2C435.613 307.32 436.936 308.724 438.962 308.724C440.704 308.724 442 307.658 442.202 306.105H440.542C440.366 306.834 439.785 307.239 438.962 307.239C437.908 307.239 437.26 306.456 437.26 305.2C437.26 303.944 437.962 303.147 439.016 303.147C439.799 303.147 440.352 303.539 440.542 304.295H442.189C442.013 302.688 440.771 301.675 438.948 301.675C436.976 301.675 435.613 303.134 435.613 305.2ZM448.159 301.878V305.375C448.159 306.645 447.659 307.252 446.619 307.252C445.701 307.252 445.201 306.739 445.201 305.47V301.878H443.554V306.051C443.554 307.685 444.459 308.724 445.998 308.724C446.889 308.724 447.754 308.292 448.159 307.658L448.28 308.549H449.806V301.878H448.159ZM453.361 308.549V304.768C453.361 303.687 453.996 303.174 454.779 303.174C455.562 303.174 456.062 303.674 456.062 304.606V308.549H457.71V304.768C457.71 303.674 458.317 303.161 459.114 303.161C459.897 303.161 460.41 303.66 460.41 304.619V308.549H462.044V304.187C462.044 302.648 461.153 301.675 459.533 301.675C458.52 301.675 457.737 302.175 457.399 302.945C457.048 302.175 456.346 301.675 455.333 301.675C454.374 301.675 453.699 302.107 453.361 302.661L453.226 301.878H451.714V308.549H453.361ZM466.852 308.724C468.594 308.724 469.81 307.847 470.093 306.388H468.567C468.378 307.023 467.784 307.374 466.879 307.374C465.785 307.374 465.164 306.78 465.043 305.605L470.066 305.591V305.092C470.066 303.012 468.797 301.675 466.798 301.675C464.84 301.675 463.476 303.12 463.476 305.213C463.476 307.279 464.867 308.724 466.852 308.724ZM466.812 303.026C467.797 303.026 468.432 303.633 468.432 304.552H465.083C465.245 303.552 465.839 303.026 466.812 303.026ZM473.238 308.549V304.957C473.238 303.876 473.859 303.174 474.872 303.174C475.723 303.174 476.277 303.714 476.277 304.835V308.549H477.924V304.444C477.924 302.715 477.06 301.675 475.385 301.675C474.481 301.675 473.67 302.067 473.252 302.742L473.117 301.878H471.591V308.549H473.238ZM483.26 307.117C483.017 307.198 482.787 307.239 482.598 307.239C482.099 307.239 481.747 306.969 481.747 306.172V303.255H483.273V301.878H481.747V299.798H480.114V301.878H479.087V303.255H480.114V306.456C480.114 308.049 480.91 308.697 482.18 308.697C482.652 308.697 483.084 308.616 483.449 308.454L483.26 307.117ZM484.242 306.523C484.242 307.833 485.295 308.724 486.956 308.724C488.604 308.724 489.752 307.887 489.752 306.537C489.752 305.51 489.185 304.997 488.064 304.741L486.862 304.457C486.295 304.322 485.998 304.079 485.998 303.701C485.998 303.201 486.376 302.904 487.024 302.904C487.659 302.904 488.037 303.269 488.05 303.836H489.617C489.603 302.54 488.59 301.675 487.091 301.675C485.552 301.675 484.445 302.459 484.445 303.768C484.445 304.835 485.025 305.402 486.227 305.672L487.429 305.956C488.023 306.091 488.199 306.334 488.199 306.672C488.199 307.158 487.78 307.469 487.01 307.469C486.254 307.469 485.822 307.104 485.809 306.523H484.242Z" fill="#2B3340"/>
</g>
<path d="M357.972 361.587H308.267L319.706 277.154H350.858C360.676 277.154 368.24 285.812 366.921 295.543L357.972 361.587Z" fill="#2B3340"/>
<path d="M351.436 359.954H301.73L313.169 275.52H344.32C354.137 275.52 361.703 284.179 360.385 293.908L351.436 359.954Z" fill="#5B6575"/>
<path d="M279.46 221.286C279.46 227.463 275.275 232.47 270.113 232.47C264.949 232.47 260.764 227.463 260.764 221.286C260.764 215.11 264.949 210.103 270.113 210.103C275.275 210.103 279.46 215.11 279.46 221.286Z" fill="#1D4ED8"/>
<path d="M282.728 221.288C282.728 227.465 278.542 232.472 273.379 232.472C268.214 232.472 264.029 227.465 264.029 221.288C264.029 215.112 268.214 210.105 273.379 210.105C278.542 210.105 282.728 215.112 282.728 221.288Z" fill="#7FC4ED"/>
<path d="M284.22 220.617C284.22 227.608 279.482 233.275 273.638 233.275C267.792 233.275 263.056 227.608 263.056 220.617C263.056 213.626 267.792 207.958 273.638 207.958C279.482 207.958 284.22 213.626 284.22 220.617Z" fill="#16272E"/>
<path d="M287.488 220.616C287.488 227.607 282.75 233.274 276.905 233.274C271.061 233.274 266.324 227.607 266.324 220.616C266.324 213.624 271.061 207.957 276.905 207.957C282.75 207.957 287.488 213.624 287.488 220.616Z" fill="#1A3240"/>
<path d="M284.048 176.576C284.048 176.576 280.442 177.404 278.487 181.112L284.048 178.107L293.014 175.697L284.048 176.576Z" fill="#47A0B0"/>
<path d="M282.728 259.431C282.728 259.431 273.481 260.269 270.582 267.078C267.684 273.887 264.05 312.155 261.986 320.052C259.923 327.951 246.713 342.387 246.713 342.387L250.932 356.55H273.813L282.728 259.431Z" fill="#F2B151"/>
<path d="M319.176 330.115L305.263 326.121L305.547 308.189C305.547 308.189 314.53 310.792 317.254 308.948C319.977 307.103 320.522 307.796 320.522 292.816C320.522 277.836 334.711 267.892 334.711 267.892L319.176 262.731C319.176 262.731 289.339 261.585 281.088 263.946C278.733 264.62 276.82 265.228 275.269 265.757C273.593 268.036 272.181 270.795 271.258 274.037C268.567 283.498 263.794 289.729 260.565 297.805C257.335 305.881 263.333 314.419 265.179 322.034C267.026 329.649 268.872 359.954 268.872 359.954H321.347C318.907 345.639 319.176 330.115 319.176 330.115Z" fill="#F2B151"/>
<path d="M345.854 306.406C348.852 295.1 349.405 282.051 344.559 270.744C339.713 259.438 314.561 255.808 314.561 255.808L292.064 257.423C292.064 257.423 292.064 257.423 286.409 258.269C282.692 258.825 278.487 261.388 275.271 265.756C276.82 265.227 278.734 264.619 281.09 263.945C289.341 261.584 319.176 262.73 319.176 262.73L334.711 267.892C334.711 267.892 320.523 277.836 320.523 292.815C320.523 307.796 319.979 307.103 317.255 308.947C314.532 310.792 305.547 308.189 305.547 308.189L305.265 326.121L319.176 330.115C319.176 330.115 318.908 345.639 321.349 359.954H338.329C338.329 359.954 335.79 348.108 336.713 340.109C337.636 332.109 342.854 317.714 345.854 306.406Z" fill="#F0A02F"/>
<path d="M307.902 283.267C311.792 271.037 319.859 258.269 319.859 258.269L284.794 269.653C284.794 269.653 282.693 281.883 281.09 292.958C280.107 299.744 279.473 303.503 279.179 308.188H305.547C305.887 297.15 306.58 287.418 307.902 283.267Z" fill="white"/>
<path d="M279.023 319.073C279.025 319.113 279.025 319.147 279.027 319.187C279.177 327.623 280.871 356.108 280.871 356.108H305.561C305.561 356.108 305.205 342.056 305.264 326.121L279.023 319.073Z" fill="white"/>
<path d="M305.547 308.186H279.178C278.994 311.123 278.941 314.426 279.021 319.07L305.263 326.118C305.286 320.19 305.368 314.01 305.547 308.186Z" fill="white"/>
<path d="M352.255 369.486H95.1416V359.954H352.255V369.486Z" fill="#8C93A1"/>
<path d="M362.877 369.486H255.838V359.954H362.877V369.486Z" fill="#3B404A"/>
<path d="M128.523 321.983C127.063 326.028 126.143 330.653 125.559 334.787H126.694C126.694 334.787 127.304 328.691 130.047 324.117C132.791 319.545 145.899 309.791 146.813 305.523C147.072 304.315 146.877 303.217 146.291 302.412C146.291 302.412 132.239 311.697 128.523 321.983Z" fill="#008744"/>
<path d="M146.291 302.412C144.808 300.372 140.74 300.277 134.62 305.523C126.085 312.84 124.56 334.787 124.56 334.787H125.559C126.143 330.653 127.063 326.028 128.523 321.983C132.239 311.697 146.291 302.412 146.291 302.412Z" fill="#166534"/>
<path d="M103.084 299.568C101.584 302.471 102.488 306.426 105.966 310.4C110.233 315.278 116.025 319.545 118.464 325.032C120.902 330.519 122.274 334.787 122.274 334.787H124.074C121.833 320.981 114.209 308.058 103.084 299.568Z" fill="#008744"/>
<path d="M124.561 319.85C124.256 314.82 124.637 306.553 120.75 302.412C115.416 296.729 107.642 294.855 104.442 297.75C103.849 298.286 103.425 298.909 103.084 299.568C114.209 308.058 121.833 320.981 124.074 334.787H125.559C125.559 334.787 124.865 324.88 124.561 319.85Z" fill="#166534"/>
<path d="M112.735 321.07C117.718 324.746 119.94 332.058 120.621 334.787H121.36C121.36 334.787 119.428 324.575 113.23 320.003C107.064 315.454 102.51 315.371 101.713 318.553C103.223 316.537 107.367 317.109 112.735 321.07Z" fill="#166534"/>
<mask id="mask0_1427_50028" style="mask-type:luminance" maskUnits="userSpaceOnUse" x="101" y="317" width="20" height="18">
<path d="M113.231 327.624C118.007 331.738 119.074 334.787 119.074 334.787H120.621C119.94 332.058 117.718 324.746 112.735 321.07C107.367 317.109 103.223 316.537 101.714 318.553C101.71 318.569 101.702 318.583 101.699 318.599C100.936 321.831 108.454 323.508 113.231 327.624Z" fill="white"/>
</mask>
<g mask="url(#mask0_1427_50028)">
<path d="M113.231 327.624C118.007 331.738 119.074 334.787 119.074 334.787H120.621C119.94 332.058 117.718 324.746 112.735 321.07C107.367 317.109 103.223 316.537 101.714 318.553C101.71 318.569 101.702 318.583 101.699 318.599C100.936 321.831 108.454 323.508 113.231 327.624Z" fill="url(#paint0_linear_1427_50028)"/>
</g>
<path d="M113.23 327.624C118.007 331.738 119.073 334.787 119.073 334.787H120.621C119.94 332.058 117.718 324.746 112.735 321.07C107.367 317.109 103.223 316.537 101.713 318.553C101.709 318.569 101.702 318.583 101.698 318.599C100.936 321.831 108.454 323.508 113.23 327.624Z" fill="#008744"/>
<path d="M133.867 317.437C127.564 322.087 124.754 331.335 123.893 334.787H122.958C122.958 334.787 125.402 321.87 133.24 316.088C141.039 310.333 146.8 310.228 147.807 314.254C145.898 311.704 140.657 312.427 133.867 317.437Z" fill="#166534"/>
<mask id="mask1_1427_50028" style="mask-type:luminance" maskUnits="userSpaceOnUse" x="123" y="312" width="25" height="23">
<path d="M133.24 325.726C127.198 330.931 125.849 334.787 125.849 334.787H123.892C124.753 331.335 127.564 322.087 133.866 317.437C140.656 312.427 145.897 311.704 147.807 314.254C147.812 314.275 147.821 314.291 147.826 314.312C148.79 318.401 139.281 320.521 133.24 325.726Z" fill="white"/>
</mask>
<g mask="url(#mask1_1427_50028)">
<path d="M133.24 325.726C127.198 330.931 125.849 334.787 125.849 334.787H123.892C124.753 331.335 127.564 322.087 133.866 317.437C140.656 312.427 145.897 311.704 147.807 314.254C147.812 314.275 147.821 314.291 147.826 314.312C148.79 318.401 139.281 320.521 133.24 325.726Z" fill="url(#paint1_linear_1427_50028)"/>
</g>
<path d="M133.24 325.726C127.199 330.931 125.85 334.787 125.85 334.787H123.893C124.754 331.335 127.564 322.087 133.867 317.437C140.657 312.427 145.898 311.704 147.807 314.254C147.812 314.275 147.822 314.291 147.827 314.312C148.79 318.401 139.282 320.521 133.24 325.726Z" fill="#008744"/>
<path d="M128.298 333.016H116.806L114.321 359.498H130.782L128.298 333.016Z" fill="#F2B151"/>
<path d="M128.298 333.016H124.262L125.505 359.498H130.782L128.298 333.016Z" fill="#D2500E"/>
<path d="M265.567 342.387H175.578C170.781 342.387 166.547 338.834 165.149 333.636L150.439 278.942C149.598 275.817 151.662 272.661 154.545 272.661H244.536C249.333 272.661 253.566 276.213 254.963 281.412L269.674 336.105C270.515 339.23 268.451 342.387 265.567 342.387Z" fill="#4B525F"/>
<mask id="mask2_1427_50028" style="mask-type:luminance" maskUnits="userSpaceOnUse" x="147" y="272" width="120" height="71">
<path d="M262.683 342.387H172.692C167.895 342.387 163.662 338.834 162.263 333.636L147.554 278.942C146.714 275.817 148.777 272.661 151.66 272.661H241.651C246.448 272.661 250.681 276.213 252.08 281.412L266.789 336.105C267.63 339.23 265.566 342.387 262.683 342.387Z" fill="white"/>
</mask>
<g mask="url(#mask2_1427_50028)">
<path d="M262.683 342.387H172.693C167.894 342.387 163.661 338.834 162.263 333.636L147.554 278.942C146.713 275.817 148.777 272.661 151.66 272.661H241.651C246.447 272.661 250.681 276.213 252.079 281.412L266.789 336.105C267.629 339.23 265.566 342.387 262.683 342.387Z" fill="#2B3340"/>
</g>
<mask id="mask3_1427_50028" style="mask-type:luminance" maskUnits="userSpaceOnUse" x="178" y="356" width="53" height="4">
<path d="M230.234 359.953H178.486V356.549H230.234V359.953Z" fill="white"/>
</mask>
<g mask="url(#mask3_1427_50028)">
<path d="M230.234 359.953H178.486V356.549H230.234V359.953Z" fill="#3B404A"/>
</g>
<path d="M234.523 359.954H210.079V356.55H234.523V359.954Z" fill="#8C93A1"/>
<path d="M229.009 320.052L239.632 342.387H206.844L208.854 321.959L229.009 320.052Z" fill="#697386"/>
<path d="M229.01 323.865H202.182V320.052H229.01V323.865Z" fill="#4B525F"/>
<path d="M207.628 356.55H190.878L197.278 320.052H214.028L207.628 356.55Z" fill="#4B525F"/>
<mask id="mask4_1427_50028" style="mask-type:luminance" maskUnits="userSpaceOnUse" x="187" y="320" width="24" height="37">
<path d="M204.359 356.55H187.609L194.01 320.052H210.76L204.359 356.55Z" fill="white"/>
</mask>
<g mask="url(#mask4_1427_50028)">
<path d="M204.359 356.55H187.609L194.01 320.052H210.76L204.359 356.55Z" fill="#4B525F"/>
</g>
<path d="M313.168 359.954H233.094V356.55H313.168V359.954Z" fill="#3B404A"/>
<mask id="mask5_1427_50028" style="mask-type:luminance" maskUnits="userSpaceOnUse" x="233" y="356" width="51" height="4">
<path d="M283.755 359.953H233.095V356.549H283.755V359.953Z" fill="white"/>
</mask>
<g mask="url(#mask5_1427_50028)">
<path d="M283.755 359.953H233.096V356.549H283.755V359.953Z" fill="#8C93A1"/>
</g>
<path d="M269.86 236.045L274.257 252.116L288.256 247.963L283.493 193.097L268.72 201.198L267.335 225.042L269.86 236.045Z" fill="#332832"/>
<path d="M291.254 253.27L289.178 242.27L313.524 232.618L311.217 242.944C311.217 242.944 296.332 254.885 295.871 254.885C295.409 254.885 291.254 253.27 291.254 253.27Z" fill="#E38C94"/>
<path d="M271.409 216.117C271.409 216.117 271.64 227.424 273.487 233.655C275.331 239.885 281.331 248.653 285.485 249.346C289.639 250.037 303.945 242.884 308.328 239.193C312.713 235.501 312.713 235.501 312.713 235.501C312.713 235.501 301.869 250.499 296.561 251.883C291.254 253.268 291.254 253.268 291.254 253.268C291.254 253.268 292.407 256.729 292.062 257.422C291.715 258.114 284.793 268.037 284.793 269.651C284.793 270.368 285.018 272.537 285.273 274.73C285.635 277.883 288.303 280.267 291.478 280.267H296.819C300.387 280.267 303.766 278.66 306.004 275.881C307.677 273.802 309.73 271.327 311.615 269.266C314.488 266.119 317.097 262.739 319.338 259.112L319.858 258.268C319.858 258.268 314.913 253.324 314.681 250.326C314.452 247.326 314.099 233.193 314.099 233.193C314.099 233.193 317.33 219.348 317.33 211.733C317.33 204.119 301.637 188.889 293.332 186.581C285.024 184.274 269.565 195.35 271.409 216.117Z" fill="#EDB4B9"/>
<path d="M303.564 211.662C295.927 208.653 289.502 202.919 285.098 195.993C282.551 191.987 280.602 187.307 281.196 182.598C281.361 181.303 281.778 180.024 282.384 178.848C278.209 180.861 275.048 183.589 272.872 186.283C266.411 194.275 263.027 205.659 265.179 221.965C267.332 238.271 272.872 254.885 272.872 254.885C272.872 254.885 261.487 195.977 277.794 198.439C277.794 198.439 280.257 209.372 291.639 215.515C303.024 221.657 308.56 222.888 308.56 222.888C308.56 222.888 309.176 239.823 308.56 249.047C307.946 258.27 307.946 258.27 307.946 258.27L333.788 249.047C333.788 249.047 337.724 226.965 334.711 207.632C332.335 208.945 330.027 210.388 327.546 211.488C320.041 214.816 311.199 214.671 303.564 211.662Z" fill="#332832"/>
<path d="M319.175 181.045C302.753 173.703 290.598 174.888 282.385 178.85C281.778 180.025 281.36 181.304 281.197 182.598C280.601 187.307 282.552 191.988 285.099 195.994C289.502 202.92 295.928 208.654 303.564 211.663C311.199 214.672 320.042 214.817 327.546 211.489C330.026 210.388 332.335 208.946 334.711 207.632C332.887 195.924 328.516 185.223 319.175 181.045Z" fill="#332832"/>
<path d="M279.18 308.19L261.988 307.524L263.53 313.262L279.023 319.073L279.18 308.19Z" fill="#F2B151"/>
<path d="M338.635 266.532C347.036 264.07 348.44 279.878 349.394 290.228C350.346 300.578 359.335 342.25 356.883 349.195C354.433 356.14 350.346 357.23 345.444 358.251C340.542 359.272 334.623 359.272 334.623 359.272C334.623 359.272 327.742 358.864 327.059 350.965C326.379 343.067 328.831 338.845 328.831 338.845L334.623 337.59C334.623 337.59 326.242 300.986 326.105 292.679C325.97 284.372 330.737 268.847 338.635 266.532Z" fill="#F0A02F"/>
<path d="M330.135 338.822C330.135 338.822 297.305 338.417 293.784 338.586C290.265 338.756 289.178 338.586 289.178 338.586L292.749 347.915L330.059 356.551L335.702 354.387L338.043 348.577V345.041L330.135 338.822Z" fill="#EDB4B9"/>
<path d="M330.209 338.742C330.209 338.742 335.469 339.778 338.463 344.155C341.455 348.53 338.893 357.43 334.283 358.199C329.671 358.966 297.888 351.173 297.888 351.173C297.888 351.173 287.179 350.598 284.301 348.064C281.42 345.531 281.42 345.531 281.42 345.531C281.42 345.531 272.975 345.992 271.554 343.228C270.137 340.465 276.239 341.385 279.232 340.925C282.226 340.465 285.336 341.155 285.336 341.155C285.336 341.155 288.446 344.149 293.052 345.186C297.659 346.223 298.117 346.709 298.117 346.709C298.117 346.709 328.98 355.204 332.206 353.362C335.43 351.519 338.56 348.301 336.841 345.19C335.121 342.081 330.209 338.742 330.209 338.742Z" fill="#E38C94"/>
<path d="M280.155 335.165C278.312 335.394 275.663 339.771 274.743 342.88C273.82 345.989 272.223 352.756 273.598 353.23C274.972 353.705 276.93 350.711 276.93 350.711C276.93 350.711 275.663 352.628 279.118 353.282C282.574 353.936 290.485 354.971 292.057 353.705C293.629 352.439 296.898 346.192 296.898 346.192C296.898 346.192 299.386 344.377 297.774 342.42C296.161 340.462 285.69 337.008 285.69 337.008C285.69 337.008 281.998 334.934 280.155 335.165Z" fill="#EDB4B9"/>
<path d="M246.714 342.387L250.935 356.55H221.928H214.711L208.173 353.441L209.703 344.727L220.157 347.468L246.714 342.387Z" fill="#EDB4B9"/>
<path d="M335.847 221.49C335.847 228.481 331.109 234.148 325.264 234.148C319.421 234.148 314.683 228.481 314.683 221.49C314.683 214.498 319.421 208.831 325.264 208.831C331.109 208.831 335.847 214.498 335.847 221.49Z" fill="#16272E"/>
<path d="M282.416 178.214C282.416 178.214 301.425 177.164 312.863 186.663C324.303 196.162 322.159 223.126 322.159 223.126L327.879 222.71C327.879 222.71 331.673 197.052 318.481 185.743C305.29 174.435 290.599 175.802 290.599 175.802L282.416 178.214Z" fill="#1E3A8A"/>
<path d="M284.048 176.579C284.048 176.579 303.057 175.529 314.497 185.028C325.936 194.527 323.792 221.491 323.792 221.491L329.51 221.076C329.51 221.076 333.306 193.783 320.115 182.475C306.924 171.167 292.232 174.169 292.232 174.169L284.048 176.579Z" fill="#3B82F6"/>
<path d="M321.908 209.484L325.266 209.449L320.624 215.311L317.358 214.851L321.908 209.484Z" fill="#16272E"/>
<path d="M339.116 221.491C339.116 228.482 334.379 234.149 328.533 234.149C322.69 234.149 317.951 228.482 317.951 221.491C317.951 214.499 322.69 208.831 328.533 208.831C334.379 208.831 339.116 214.499 339.116 221.491Z" fill="#1A3240"/>
<path d="M328.797 210.103H332.477V232.47H329.208L328.797 210.103Z" fill="#4794D0"/>
<path d="M323.274 229.893C314.041 239.186 300.799 241.612 288.256 241.612C287.468 241.612 287.466 242.838 288.256 242.838C301.126 242.838 314.673 240.289 324.14 230.76C324.697 230.2 323.831 229.332 323.274 229.893Z" fill="#1A3240"/>
<path d="M338.557 221.286C338.557 227.463 334.371 232.47 329.208 232.47C324.044 232.47 319.859 227.463 319.859 221.286C319.859 215.11 324.044 210.103 329.208 210.103C334.371 210.103 338.557 215.11 338.557 221.286Z" fill="#1E3A8A"/>
<path d="M341.824 221.288C341.824 227.465 337.637 232.472 332.475 232.472C327.313 232.472 323.126 227.465 323.126 221.288C323.126 215.112 327.313 210.105 332.475 210.105C337.637 210.105 341.824 215.112 341.824 221.288Z" fill="#1D4ED8"/>
<path d="M338.954 221.285C338.954 224.727 336.623 227.517 333.746 227.517C330.867 227.517 328.536 224.727 328.536 221.285C328.536 217.844 330.867 215.054 333.746 215.054C336.623 215.054 338.954 217.844 338.954 221.285Z" fill="#1E3A8A"/>
<path d="M292.76 244.267H284.409C284.304 244.267 284.221 244.182 284.221 244.079V240.165C284.221 240.062 284.304 239.977 284.409 239.977H292.76C292.864 239.977 292.949 240.062 292.949 240.165V244.079C292.949 244.182 292.864 244.267 292.76 244.267Z" fill="#1D4ED8"/>
<rect x="195.649" y="26.0215" width="87.6744" height="107.158" transform="rotate(-15 195.649 26.0215)" fill="white"/>
<g filter="url(#filter1_d_1427_50028)">
<rect x="208.023" y="12.8496" width="87.6744" height="107.158" fill="white"/>
</g>
<rect opacity="0.2" x="214.561" y="28.1172" width="41.2502" height="4.8708" fill="#E37712"/>
<rect opacity="0.2" x="214.561" y="94.3105" width="41.2502" height="4.8708" fill="#E37712"/>
<rect opacity="0.4" x="214.561" y="35.9277" width="75.5241" height="4.8708" fill="#CED1D9"/>
<rect opacity="0.4" x="214.561" y="102.123" width="75.5241" height="4.8708" fill="#CED1D9"/>
<rect opacity="0.4" x="215.17" y="62.1655" width="74.3064" height="26.4017" stroke="#CED1D9" stroke-width="1.2177"/>
<rect opacity="0.4" x="214.561" y="43.7422" width="75.5241" height="4.8708" fill="#CED1D9"/>
<rect opacity="0.4" x="214.561" y="109.936" width="75.5241" height="4.8708" fill="#CED1D9"/>
<rect opacity="0.2" x="214.561" y="53.7461" width="71.0523" height="4.8708" fill="#FACC15"/>
<line x1="228.513" y1="61.5566" x2="228.513" y2="89.1761" stroke="#EBECF0" stroke-width="1.2177"/>
<line x1="241.264" y1="61.5566" x2="241.264" y2="89.1761" stroke="#EBECF0" stroke-width="1.2177"/>
<line x1="254.015" y1="61.5566" x2="254.015" y2="89.1761" stroke="#EBECF0" stroke-width="1.2177"/>
<line x1="266.766" y1="61.5566" x2="266.766" y2="89.1761" stroke="#EBECF0" stroke-width="1.2177"/>
<line x1="290.085" y1="75.9741" x2="214.561" y2="75.9741" stroke="#EBECF0" stroke-width="1.2177"/>
<line x1="279.516" y1="61.5566" x2="279.516" y2="89.1761" stroke="#EBECF0" stroke-width="1.2177"/>
<path d="M226.316 23.9158L226.797 22.5387H229.021L229.502 23.9158H230.602L228.451 17.9594H227.384L225.232 23.9158H226.316ZM227.783 19.7357C227.84 19.5728 227.889 19.3935 227.913 19.2794C227.93 19.4017 227.987 19.5809 228.035 19.7357L228.72 21.6587H227.107L227.783 19.7357Z" fill="#2B3340"/>
<path d="M233.765 21.8624C234.955 21.8624 235.737 21.0558 235.737 19.9069C235.737 18.7417 234.963 17.9594 233.765 17.9594H231.41V23.9158H232.453V21.8624H233.765ZM233.561 18.8883C234.254 18.8883 234.645 19.2469 234.645 19.8987C234.645 20.5506 234.262 20.9335 233.545 20.9335H232.453V18.8883H233.561Z" fill="#2B3340"/>
<path d="M239.03 21.8624C240.22 21.8624 241.002 21.0558 241.002 19.9069C241.002 18.7417 240.228 17.9594 239.03 17.9594H236.675V23.9158H237.718V21.8624H239.03ZM238.826 18.8883C239.519 18.8883 239.91 19.2469 239.91 19.8987C239.91 20.5506 239.527 20.9335 238.81 20.9335H237.718V18.8883H238.826Z" fill="#2B3340"/>
<path d="M242.983 17.9594H241.94V23.9158H245.477V22.9543H242.983V17.9594Z" fill="#2B3340"/>
<path d="M247.429 17.9594H246.386V23.9158H247.429V17.9594Z" fill="#2B3340"/>
<path d="M251.328 24.0135C252.738 24.0135 253.83 23.1824 254.058 21.9276H252.974C252.778 22.5876 252.159 23.0113 251.353 23.0113C250.261 23.0113 249.56 22.1965 249.56 20.9335C249.56 19.6624 250.253 18.8639 251.353 18.8639C252.143 18.8639 252.738 19.2713 252.941 19.9639H254.041C253.838 18.6846 252.787 17.8617 251.377 17.8617C249.633 17.8617 248.468 19.092 248.468 20.9417C248.468 22.8076 249.593 24.0135 251.328 24.0135Z" fill="#2B3340"/>
<path d="M255.313 23.9158L255.794 22.5387H258.018L258.499 23.9158H259.599L257.448 17.9594H256.38L254.229 23.9158H255.313ZM256.78 19.7357C256.837 19.5728 256.885 19.3935 256.91 19.2794C256.926 19.4017 256.983 19.5809 257.032 19.7357L257.717 21.6587H256.103L256.78 19.7357Z" fill="#2B3340"/>
<path d="M259.352 18.9209H261.096V23.9158H262.139V18.9209H263.883V17.9594H259.352V18.9209Z" fill="#2B3340"/>
<path d="M265.784 17.9594H264.741V23.9158H265.784V17.9594Z" fill="#2B3340"/>
<path d="M272.6 20.9335C272.6 19.1165 271.411 17.8535 269.708 17.8535C268.005 17.8535 266.823 19.1246 266.823 20.9335C266.823 22.7506 267.997 24.0135 269.699 24.0135C271.411 24.0135 272.6 22.7424 272.6 20.9335ZM271.5 20.9335C271.5 22.1883 270.799 23.0113 269.708 23.0113C268.616 23.0113 267.915 22.2046 267.915 20.9335C267.915 19.6624 268.616 18.8557 269.708 18.8557C270.799 18.8557 271.5 19.6624 271.5 20.9335Z" fill="#2B3340"/>
<path d="M274.659 23.9158V19.695L277.462 23.9158H278.488V17.9594H277.462V22.1802L274.667 17.9594H273.632V23.9158H274.659Z" fill="#2B3340"/>
<circle cx="96.064" cy="202.659" r="40.178" fill="url(#paint2_linear_1427_50028)"/>
<circle cx="96.0639" cy="202.659" r="28.9648" fill="#FACC15"/>
<path d="M94.6558 222.328H97.9414V218.701C103.659 218.061 107.329 214.477 107.329 209.271C107.329 204.748 104.854 202.102 99.3921 200.908L97.9414 200.566V191.392C100.16 191.862 101.44 193.355 101.526 195.659H106.817C106.646 190.539 103.318 187.168 97.9414 186.613V182.986H94.6558V186.613C88.9807 187.211 85.2257 190.795 85.2257 195.787C85.2257 200.481 87.9139 203.468 93.2903 204.62L94.6558 204.919V214.007C91.8822 213.666 90.3034 212.13 90.2608 209.698H84.799C84.927 214.903 88.7246 218.36 94.6558 218.786V222.328ZM94.4851 199.798C91.7542 199.201 90.5595 197.878 90.5595 195.617C90.5595 193.312 92.0956 191.776 94.6558 191.35V199.841L94.4851 199.798ZM98.2401 205.687C100.8 206.241 102.038 207.564 102.038 209.74C102.038 211.917 100.502 213.41 97.9414 213.922V205.601L98.2401 205.687Z" fill="#CA8A04"/>
<mask id="mask6_1427_50028" style="mask-type:alpha" maskUnits="userSpaceOnUse" x="55" y="162" width="82" height="81">
<circle cx="96.0641" cy="202.66" r="40.178" fill="url(#paint3_linear_1427_50028)"/>
</mask>
<g mask="url(#mask6_1427_50028)">
<rect opacity="0.2" x="52.3986" y="165.951" width="110.605" height="13.1585" transform="rotate(30 52.3986 165.951)" fill="white"/>
<rect opacity="0.2" x="52.3986" y="182.988" width="110.605" height="5.57426" transform="rotate(30 52.3986 182.988)" fill="white"/>
</g>
<path d="M81.184 149.044C81.0218 149.044 80.8627 148.999 80.7252 148.913C80.5877 148.827 80.4774 148.704 80.407 148.558C79.015 145.661 80.6984 143.378 82.4627 140.95C85.004 137.47 88.1604 133.148 84.826 124.764C78.934 109.742 83.6443 101.002 83.8548 100.646C83.9753 100.466 84.1591 100.339 84.3693 100.29C84.5794 100.24 84.8006 100.271 84.9886 100.378C85.1767 100.484 85.3177 100.657 85.3835 100.863C85.4494 101.069 85.4353 101.292 85.3439 101.487C85.3439 101.568 80.8441 109.92 86.4284 124.149C90.1028 133.488 86.4284 138.425 83.8386 141.954C81.9771 144.511 81.0545 145.936 81.9447 147.813C81.9941 147.915 82.0228 148.026 82.0292 148.139C82.0356 148.252 82.0195 148.366 81.9819 148.472C81.9442 148.579 81.8858 148.678 81.81 148.762C81.7342 148.846 81.6424 148.914 81.5401 148.963C81.4277 149.012 81.3068 149.04 81.184 149.044Z" fill="#2B3340"/>
<path d="M84.6479 103.396C84.1695 103.399 83.701 103.26 83.3019 102.996C82.9028 102.732 82.5912 102.356 82.4067 101.914C82.2221 101.473 82.173 100.987 82.2655 100.518C82.3581 100.048 82.5881 99.6169 82.9264 99.2787C83.2646 98.9404 83.6959 98.7104 84.1652 98.6178C84.6346 98.5253 85.1208 98.5744 85.5622 98.759C86.0035 98.9435 86.38 99.2551 86.6438 99.6542C86.9076 100.053 87.0467 100.522 87.0435 101C87.0393 101.634 86.7855 102.241 86.3372 102.689C85.8888 103.138 85.282 103.392 84.6479 103.396ZM84.6479 100.304C84.5487 100.289 84.4474 100.295 84.3509 100.323C84.2544 100.35 84.165 100.399 84.0889 100.464C84.0127 100.529 83.9516 100.61 83.9097 100.701C83.8677 100.793 83.846 100.892 83.846 100.992C83.846 101.092 83.8677 101.192 83.9097 101.283C83.9516 101.374 84.0127 101.455 84.0889 101.52C84.165 101.586 84.2544 101.634 84.3509 101.661C84.4474 101.689 84.5487 101.695 84.6479 101.68C84.8122 101.655 84.9621 101.571 85.0703 101.445C85.1786 101.319 85.2381 101.158 85.2381 100.992C85.2381 100.826 85.1786 100.665 85.0703 100.539C84.9621 100.413 84.8122 100.329 84.6479 100.304Z" fill="#2B3340"/>
<path d="M111.842 133.958L112.651 135.302L32.4463 184.299L31.637 182.955L64.1398 146.017L111.842 133.958Z" fill="#CED1D9"/>
<path d="M112.651 135.303L80.1485 172.241L32.4465 184.3L64.9493 147.362L112.651 135.303Z" fill="#2B3340"/>
<path d="M106.694 163.887C89.9026 171.241 74.1875 180.841 59.9793 192.424C59.7822 192.597 59.5503 192.727 59.2991 192.804C59.0479 192.88 58.7832 192.903 58.5227 192.869C58.2622 192.835 58.0119 192.746 57.7886 192.608C57.5652 192.47 57.374 192.286 57.2275 192.068L48.6486 178.018C48.4318 177.635 48.3599 177.188 48.4461 176.757C48.5323 176.326 48.7708 175.94 49.118 175.67C63.5755 163.805 79.607 154 96.7553 146.534C97.1519 146.346 97.6035 146.307 98.0263 146.426C98.449 146.545 98.8142 146.814 99.0538 147.182L107.633 161.232C107.768 161.463 107.851 161.722 107.876 161.988C107.901 162.255 107.868 162.524 107.778 162.777C107.689 163.029 107.546 163.26 107.359 163.451C107.171 163.643 106.944 163.791 106.694 163.887Z" fill="#2B3340"/>
<path opacity="0.3" d="M106.694 163.887C89.9026 171.241 74.1875 180.841 59.9793 192.424C59.7822 192.597 59.5503 192.727 59.2991 192.804C59.0479 192.88 58.7832 192.903 58.5227 192.869C58.2622 192.835 58.0119 192.746 57.7886 192.608C57.5652 192.47 57.374 192.286 57.2275 192.068L48.6486 178.018C48.4318 177.635 48.3599 177.188 48.4461 176.757C48.5323 176.326 48.7708 175.94 49.118 175.67C63.5755 163.805 79.607 154 96.7553 146.534C97.1519 146.346 97.6035 146.307 98.0263 146.426C98.449 146.545 98.8142 146.814 99.0538 147.182L107.633 161.232C107.768 161.463 107.851 161.722 107.876 161.988C107.901 162.255 107.868 162.524 107.778 162.777C107.689 163.029 107.546 163.26 107.359 163.451C107.171 163.643 106.944 163.791 106.694 163.887Z" fill="#CED1D9"/>
<g filter="url(#filter2_d_1427_50028)">
<rect x="58.83" y="230.364" width="104.606" height="27.8031" rx="13.9016" fill="white" shape-rendering="crispEdges"/>
<path d="M70.1598 241.649C70.1598 243.162 71.0375 244.12 72.712 244.485L74.2785 244.836C75.0887 245.012 75.4263 245.403 75.4263 246.065C75.4263 246.889 74.6971 247.388 73.5493 247.388C72.4419 247.388 71.7667 246.889 71.7532 246.051H70.0247C70.0652 247.82 71.4426 248.941 73.5493 248.941C75.7234 248.941 77.1548 247.753 77.1548 245.916C77.1548 244.444 76.3311 243.58 74.6431 243.216L73.0901 242.878C72.2664 242.689 71.8883 242.297 71.8883 241.595C71.8883 240.771 72.577 240.258 73.6438 240.258C74.6161 240.258 75.2237 240.758 75.2642 241.609H76.9927C76.9387 239.826 75.6694 238.719 73.6708 238.719C71.5912 238.719 70.1598 239.921 70.1598 241.649ZM78.29 245.417C78.29 247.537 79.6133 248.941 81.6389 248.941C83.3809 248.941 84.6773 247.874 84.8799 246.321H83.2189C83.0433 247.051 82.4627 247.456 81.6389 247.456C80.5856 247.456 79.9374 246.673 79.9374 245.417C79.9374 244.161 80.6396 243.364 81.6929 243.364C82.4762 243.364 83.0298 243.756 83.2189 244.512H84.8664C84.6908 242.905 83.4484 241.892 81.6254 241.892C79.6539 241.892 78.29 243.351 78.29 245.417ZM87.9597 248.766V245.12C87.9597 244.12 88.5674 243.391 89.6072 243.391C90.4444 243.391 90.9981 243.931 90.9981 245.052V248.766H92.6455V244.66C92.6455 242.932 91.7813 241.892 90.1338 241.892C89.175 241.892 88.3918 242.311 87.9732 242.959V238.719H86.3122V248.766H87.9597ZM94.0787 245.417C94.0787 247.496 95.5777 248.928 97.6438 248.928C99.7099 248.928 101.209 247.496 101.209 245.417C101.209 243.337 99.7099 241.906 97.6438 241.906C95.5777 241.906 94.0787 243.337 94.0787 245.417ZM95.7262 245.417C95.7262 244.201 96.5095 243.378 97.6438 243.378C98.7781 243.378 99.5613 244.201 99.5613 245.417C99.5613 246.632 98.7781 247.456 97.6438 247.456C96.5095 247.456 95.7262 246.632 95.7262 245.417ZM104.382 248.766V238.719H102.748V248.766H104.382ZM111.488 242.095L111.394 243.121C110.988 242.324 110.057 241.892 109.057 241.892C107.18 241.892 105.925 243.256 105.925 245.349C105.925 247.429 107.059 248.941 109.044 248.941C110.124 248.941 110.921 248.415 111.34 247.726L111.448 248.766H112.987V242.095H111.488ZM111.313 245.43C111.313 246.632 110.57 247.456 109.422 247.456C108.274 247.456 107.572 246.619 107.572 245.43C107.572 244.242 108.288 243.391 109.436 243.391C110.583 243.391 111.313 244.228 111.313 245.43ZM119.082 242.068C118.812 242 118.583 241.973 118.353 241.973C117.462 241.973 116.827 242.419 116.544 243.08L116.449 242.108H114.896V248.766H116.544V245.525C116.544 244.228 117.286 243.594 118.475 243.594H119.082V242.068ZM119.891 246.74C119.891 248.05 120.944 248.941 122.605 248.941C124.252 248.941 125.4 248.104 125.4 246.754C125.4 245.727 124.833 245.214 123.712 244.958L122.51 244.674C121.943 244.539 121.646 244.296 121.646 243.918C121.646 243.418 122.024 243.121 122.672 243.121C123.307 243.121 123.685 243.486 123.699 244.053H125.265C125.252 242.756 124.239 241.892 122.74 241.892C121.2 241.892 120.093 242.675 120.093 243.985C120.093 245.052 120.674 245.619 121.876 245.889L123.078 246.173C123.672 246.308 123.847 246.551 123.847 246.889C123.847 247.375 123.429 247.685 122.659 247.685C121.903 247.685 121.471 247.321 121.457 246.74H119.891ZM128.508 248.766V245.12C128.508 244.12 129.116 243.391 130.156 243.391C130.993 243.391 131.547 243.931 131.547 245.052V248.766H133.194V244.66C133.194 242.932 132.33 241.892 130.682 241.892C129.724 241.892 128.94 242.311 128.522 242.959V238.719H126.861V248.766H128.508ZM135.843 240.758C136.383 240.758 136.828 240.312 136.828 239.759C136.828 239.205 136.383 238.773 135.843 238.773C135.275 238.773 134.83 239.205 134.83 239.759C134.83 240.312 135.275 240.758 135.843 240.758ZM135.019 248.766H136.666V242.095H135.019V248.766ZM138.575 251.858H140.222V247.874C140.641 248.55 141.505 248.941 142.504 248.941C144.489 248.941 145.624 247.429 145.624 245.349C145.624 243.256 144.381 241.892 142.504 241.892C141.491 241.892 140.614 242.338 140.209 243.107L140.101 242.095H138.575V251.858ZM140.236 245.43C140.236 244.228 140.978 243.391 142.113 243.391C143.274 243.391 143.963 244.242 143.963 245.43C143.963 246.619 143.274 247.456 142.113 247.456C140.978 247.456 140.236 246.632 140.236 245.43ZM146.628 246.74C146.628 248.05 147.682 248.941 149.343 248.941C150.99 248.941 152.138 248.104 152.138 246.754C152.138 245.727 151.571 245.214 150.45 244.958L149.248 244.674C148.681 244.539 148.384 244.296 148.384 243.918C148.384 243.418 148.762 243.121 149.41 243.121C150.045 243.121 150.423 243.486 150.436 244.053H152.003C151.989 242.756 150.977 241.892 149.478 241.892C147.938 241.892 146.831 242.675 146.831 243.985C146.831 245.052 147.412 245.619 148.613 245.889L149.815 246.173C150.409 246.308 150.585 246.551 150.585 246.889C150.585 247.375 150.166 247.685 149.397 247.685C148.64 247.685 148.208 247.321 148.195 246.74H146.628Z" fill="#2B3340"/>
</g>
<g filter="url(#filter3_d_1427_50028)">
<rect x="183.818" y="129.528" width="150.606" height="27.8031" rx="13.9016" fill="white" shape-rendering="crispEdges"/>
<path d="M196.566 147.93L197.362 145.648H201.049L201.846 147.93H203.669L200.104 138.058H198.335L194.77 147.93H196.566ZM198.996 141.002C199.091 140.732 199.172 140.435 199.212 140.246C199.239 140.449 199.334 140.746 199.415 141.002L200.549 144.189H197.875L198.996 141.002ZM204.87 151.022H206.517V147.038C206.936 147.714 207.8 148.105 208.799 148.105C210.784 148.105 211.919 146.593 211.919 144.513C211.919 142.42 210.676 141.056 208.799 141.056C207.786 141.056 206.909 141.502 206.504 142.272L206.395 141.259H204.87V151.022ZM206.531 144.594C206.531 143.392 207.273 142.555 208.408 142.555C209.569 142.555 210.258 143.406 210.258 144.594C210.258 145.783 209.569 146.62 208.408 146.62C207.273 146.62 206.531 145.796 206.531 144.594ZM213.436 151.022H215.084V147.038C215.503 147.714 216.367 148.105 217.366 148.105C219.351 148.105 220.486 146.593 220.486 144.513C220.486 142.42 219.243 141.056 217.366 141.056C216.353 141.056 215.476 141.502 215.07 142.272L214.962 141.259H213.436V151.022ZM215.097 144.594C215.097 143.392 215.84 142.555 216.975 142.555C218.136 142.555 218.825 143.406 218.825 144.594C218.825 145.783 218.136 146.62 216.975 146.62C215.84 146.62 215.097 145.796 215.097 144.594ZM223.664 147.93V137.883H222.03V147.93H223.664ZM226.422 139.922C226.963 139.922 227.408 139.476 227.408 138.923C227.408 138.369 226.963 137.937 226.422 137.937C225.855 137.937 225.41 138.369 225.41 138.923C225.41 139.476 225.855 139.922 226.422 139.922ZM225.599 147.93H227.246V141.259H225.599V147.93ZM228.763 144.581C228.763 146.701 230.086 148.105 232.112 148.105C233.854 148.105 235.15 147.038 235.353 145.485H233.692C233.516 146.215 232.936 146.62 232.112 146.62C231.059 146.62 230.41 145.837 230.41 144.581C230.41 143.325 231.113 142.528 232.166 142.528C232.949 142.528 233.503 142.92 233.692 143.676H235.339C235.164 142.069 233.921 141.056 232.098 141.056C230.127 141.056 228.763 142.515 228.763 144.581ZM241.957 141.259L241.863 142.285C241.457 141.488 240.526 141.056 239.526 141.056C237.649 141.056 236.394 142.42 236.394 144.513C236.394 146.593 237.528 148.105 239.513 148.105C240.593 148.105 241.39 147.579 241.809 146.89L241.917 147.93H243.456V141.259H241.957ZM241.782 144.594C241.782 145.796 241.039 146.62 239.891 146.62C238.743 146.62 238.041 145.783 238.041 144.594C238.041 143.406 238.757 142.555 239.905 142.555C241.052 142.555 241.782 143.392 241.782 144.594ZM248.876 146.498C248.633 146.579 248.404 146.62 248.215 146.62C247.715 146.62 247.364 146.35 247.364 145.553V142.636H248.89V141.259H247.364V139.179H245.73V141.259H244.704V142.636H245.73V145.837C245.73 147.43 246.527 148.078 247.796 148.078C248.269 148.078 248.701 147.997 249.065 147.835L248.876 146.498ZM251.195 139.922C251.736 139.922 252.181 139.476 252.181 138.923C252.181 138.369 251.736 137.937 251.195 137.937C250.628 137.937 250.183 138.369 250.183 138.923C250.183 139.476 250.628 139.922 251.195 139.922ZM250.372 147.93H252.019V141.259H250.372V147.93ZM253.536 144.581C253.536 146.66 255.035 148.092 257.101 148.092C259.167 148.092 260.666 146.66 260.666 144.581C260.666 142.501 259.167 141.07 257.101 141.07C255.035 141.07 253.536 142.501 253.536 144.581ZM255.183 144.581C255.183 143.365 255.966 142.542 257.101 142.542C258.235 142.542 259.018 143.365 259.018 144.581C259.018 145.796 258.235 146.62 257.101 146.62C255.966 146.62 255.183 145.796 255.183 144.581ZM263.825 147.93V144.338C263.825 143.257 264.446 142.555 265.459 142.555C266.31 142.555 266.864 143.095 266.864 144.216V147.93H268.511V143.824C268.511 142.096 267.647 141.056 265.972 141.056C265.068 141.056 264.257 141.448 263.839 142.123L263.704 141.259H262.178V147.93H263.825ZM274.182 151.022H275.829V147.038C276.248 147.714 277.112 148.105 278.111 148.105C280.097 148.105 281.231 146.593 281.231 144.513C281.231 142.42 279.989 141.056 278.111 141.056C277.099 141.056 276.221 141.502 275.816 142.272L275.708 141.259H274.182V151.022ZM275.843 144.594C275.843 143.392 276.586 142.555 277.72 142.555C278.881 142.555 279.57 143.406 279.57 144.594C279.57 145.783 278.881 146.62 277.72 146.62C276.586 146.62 275.843 145.796 275.843 144.594ZM286.935 141.232C286.665 141.164 286.435 141.137 286.206 141.137C285.315 141.137 284.68 141.583 284.396 142.245L284.302 141.272H282.749V147.93H284.396V144.689C284.396 143.392 285.139 142.758 286.327 142.758H286.935V141.232ZM287.64 144.581C287.64 146.66 289.139 148.092 291.205 148.092C293.272 148.092 294.771 146.66 294.771 144.581C294.771 142.501 293.272 141.07 291.205 141.07C289.139 141.07 287.64 142.501 287.64 144.581ZM289.288 144.581C289.288 143.365 290.071 142.542 291.205 142.542C292.34 142.542 293.123 143.365 293.123 144.581C293.123 145.796 292.34 146.62 291.205 146.62C290.071 146.62 289.288 145.796 289.288 144.581ZM295.891 144.581C295.891 146.701 297.214 148.105 299.24 148.105C300.982 148.105 302.278 147.038 302.481 145.485H300.82C300.644 146.215 300.064 146.62 299.24 146.62C298.187 146.62 297.538 145.837 297.538 144.581C297.538 143.325 298.241 142.528 299.294 142.528C300.077 142.528 300.631 142.92 300.82 143.676H302.467C302.292 142.069 301.049 141.056 299.226 141.056C297.255 141.056 295.891 142.515 295.891 144.581ZM306.898 148.105C308.64 148.105 309.855 147.227 310.138 145.769H308.613C308.423 146.404 307.829 146.755 306.925 146.755C305.831 146.755 305.21 146.161 305.088 144.986L310.111 144.972V144.473C310.111 142.393 308.842 141.056 306.844 141.056C304.885 141.056 303.522 142.501 303.522 144.594C303.522 146.66 304.912 148.105 306.898 148.105ZM306.857 142.407C307.843 142.407 308.477 143.014 308.477 143.933H305.129C305.291 142.933 305.885 142.407 306.857 142.407ZM311.123 145.904C311.123 147.214 312.176 148.105 313.837 148.105C315.485 148.105 316.633 147.268 316.633 145.918C316.633 144.891 316.065 144.378 314.945 144.122L313.743 143.838C313.176 143.703 312.878 143.46 312.878 143.082C312.878 142.582 313.257 142.285 313.905 142.285C314.539 142.285 314.918 142.65 314.931 143.217H316.498C316.484 141.92 315.471 141.056 313.972 141.056C312.433 141.056 311.326 141.839 311.326 143.149C311.326 144.216 311.906 144.783 313.108 145.053L314.31 145.337C314.904 145.472 315.08 145.715 315.08 146.053C315.08 146.539 314.661 146.849 313.891 146.849C313.135 146.849 312.703 146.485 312.689 145.904H311.123ZM317.58 145.904C317.58 147.214 318.633 148.105 320.294 148.105C321.942 148.105 323.09 147.268 323.09 145.918C323.09 144.891 322.522 144.378 321.402 144.122L320.2 143.838C319.633 143.703 319.335 143.46 319.335 143.082C319.335 142.582 319.714 142.285 320.362 142.285C320.996 142.285 321.375 142.65 321.388 143.217H322.955C322.941 141.92 321.928 141.056 320.429 141.056C318.89 141.056 317.783 141.839 317.783 143.149C317.783 144.216 318.363 144.783 319.565 145.053L320.767 145.337C321.361 145.472 321.537 145.715 321.537 146.053C321.537 146.539 321.118 146.849 320.348 146.849C319.592 146.849 319.16 146.485 319.146 145.904H317.58Z" fill="#2B3340"/>
</g>
<path d="M420.494 258.449C420.415 259.961 421.242 260.966 422.898 261.419L424.446 261.852C425.247 262.07 425.565 262.479 425.53 263.141C425.487 263.965 424.731 264.427 423.583 264.366C422.476 264.308 421.827 263.773 421.857 262.935L420.128 262.845C420.076 264.616 421.395 265.809 423.502 265.92C425.676 266.034 427.17 264.92 427.266 263.083C427.344 261.611 426.565 260.703 424.896 260.25L423.36 259.831C422.546 259.599 422.189 259.188 422.226 258.485C422.269 257.661 422.984 257.184 424.051 257.24C425.024 257.291 425.605 257.823 425.601 258.676L427.33 258.766C427.37 256.981 426.158 255.807 424.159 255.702C422.079 255.593 420.585 256.72 420.494 258.449Z" fill="white"/>
<path d="M438.05 261.549C438.208 258.537 436.346 256.341 433.523 256.193C430.7 256.045 428.631 258.049 428.474 261.047C428.316 264.059 430.151 266.255 432.974 266.402C435.81 266.551 437.893 264.548 438.05 261.549ZM436.227 261.454C436.118 263.534 434.885 264.837 433.075 264.742C431.265 264.647 430.173 263.249 430.284 261.142C430.394 259.035 431.626 257.759 433.436 257.854C435.246 257.949 436.337 259.347 436.227 261.454Z" fill="white"/>
<path d="M443.583 263.383C445.555 263.486 446.921 262.217 447.021 260.313C447.122 258.382 445.907 257.018 443.922 256.914L440.019 256.709L439.501 266.582L441.23 266.673L441.408 263.269L443.583 263.383ZM443.503 258.436C444.651 258.496 445.269 259.124 445.212 260.205C445.155 261.285 444.487 261.887 443.299 261.824L441.489 261.729L441.667 258.339L443.503 258.436Z" fill="white"/>
<path d="M458.314 267.568L460.232 267.668L458.72 265.774C459.26 265.017 459.582 264.045 459.642 262.897L458.035 262.813C458.001 263.462 457.877 264.024 457.677 264.487L455.808 262.155C457.08 261.395 457.648 260.64 457.7 259.654C457.767 258.371 456.814 257.427 455.369 257.351C453.91 257.275 452.794 258.164 452.725 259.474C452.686 260.217 452.952 260.84 453.675 261.772C452.124 262.422 451.289 263.367 451.226 264.569C451.139 266.23 452.524 267.441 454.672 267.553C455.86 267.615 456.877 267.344 457.691 266.79L458.314 267.568ZM454.293 259.543C454.323 258.962 454.706 258.63 455.3 258.661C455.868 258.691 456.201 259.047 456.171 259.628C456.135 260.303 455.769 260.839 455.059 261.208C454.462 260.446 454.267 260.029 454.293 259.543ZM452.976 264.498C453.017 263.728 453.465 263.183 454.425 262.705L456.789 265.66C456.296 266.013 455.678 266.184 454.935 266.145C453.666 266.078 452.926 265.457 452.976 264.498Z" fill="white"/>
<path d="M467.054 258.126L465.326 258.035L464.808 267.908L470.67 268.215L470.753 266.622L466.62 266.405L467.054 258.126Z" fill="white"/>
<path d="M480.97 263.798C481.127 260.787 479.265 258.59 476.443 258.442C473.62 258.294 471.551 260.298 471.394 263.297C471.236 266.308 473.071 268.504 475.894 268.652C478.73 268.8 480.812 266.797 480.97 263.798ZM479.146 263.703C479.037 265.783 477.804 267.086 475.994 266.991C474.185 266.896 473.093 265.498 473.204 263.391C473.314 261.285 474.546 260.008 476.355 260.103C478.165 260.198 479.257 261.596 479.146 263.703Z" fill="white"/>
<path d="M484.15 268.922L484.343 265.235L486.463 265.346L487.945 269.121L489.836 269.22L488.171 265.07C489.357 264.658 490.028 263.745 490.097 262.421C490.199 260.477 488.948 259.273 486.706 259.156L482.938 258.958L482.421 268.831L484.15 268.922ZM484.586 260.589L486.626 260.696C487.72 260.753 488.339 261.341 488.287 262.327C488.235 263.326 487.556 263.873 486.462 263.815L484.423 263.709L484.586 260.589Z" fill="white"/>
<defs>
<filter id="filter0_d_1427_50028" x="347.338" y="236.87" width="212.726" height="144.923" filterUnits="userSpaceOnUse" color-interpolation-filters="sRGB">
<feFlood flood-opacity="0" result="BackgroundImageFix"/>
<feColorMatrix in="SourceAlpha" type="matrix" values="0 0 0 0 0 0 0 0 0 0 0 0 0 0 0 0 0 0 127 0" result="hardAlpha"/>
<feOffset dy="5.28225"/>
<feGaussianBlur stdDeviation="29.28"/>
<feComposite in2="hardAlpha" operator="out"/>
<feColorMatrix type="matrix" values="0 0 0 0 0 0 0 0 0 0 0 0 0 0 0 0 0 0 0.16 0"/>
<feBlend mode="normal" in2="BackgroundImageFix" result="effect1_dropShadow_1427_50028"/>
<feBlend mode="normal" in="SourceGraphic" in2="effect1_dropShadow_1427_50028" result="shape"/>
</filter>
<filter id="filter1_d_1427_50028" x="195.846" y="0.672609" width="116.899" height="136.382" filterUnits="userSpaceOnUse" color-interpolation-filters="sRGB">
<feFlood flood-opacity="0" result="BackgroundImageFix"/>
<feColorMatrix in="SourceAlpha" type="matrix" values="0 0 0 0 0 0 0 0 0 0 0 0 0 0 0 0 0 0 127 0" result="hardAlpha"/>
<feOffset dx="2.4354" dy="2.4354"/>
<feGaussianBlur stdDeviation="7.3062"/>
<feComposite in2="hardAlpha" operator="out"/>
<feColorMatrix type="matrix" values="0 0 0 0 0.168627 0 0 0 0 0.2 0 0 0 0 0.25098 0 0 0 0.1 0"/>
<feBlend mode="normal" in2="BackgroundImageFix" result="effect1_dropShadow_1427_50028"/>
<feBlend mode="normal" in="SourceGraphic" in2="effect1_dropShadow_1427_50028" result="shape"/>
</filter>
<filter id="filter2_d_1427_50028" x="0.270016" y="177.087" width="221.726" height="144.923" filterUnits="userSpaceOnUse" color-interpolation-filters="sRGB">
<feFlood flood-opacity="0" result="BackgroundImageFix"/>
<feColorMatrix in="SourceAlpha" type="matrix" values="0 0 0 0 0 0 0 0 0 0 0 0 0 0 0 0 0 0 127 0" result="hardAlpha"/>
<feOffset dy="5.28225"/>
<feGaussianBlur stdDeviation="29.28"/>
<feComposite in2="hardAlpha" operator="out"/>
<feColorMatrix type="matrix" values="0 0 0 0 0 0 0 0 0 0 0 0 0 0 0 0 0 0 0.16 0"/>
<feBlend mode="normal" in2="BackgroundImageFix" result="effect1_dropShadow_1427_50028"/>
<feBlend mode="normal" in="SourceGraphic" in2="effect1_dropShadow_1427_50028" result="shape"/>
</filter>
<filter id="filter3_d_1427_50028" x="125.258" y="76.2506" width="267.726" height="144.923" filterUnits="userSpaceOnUse" color-interpolation-filters="sRGB">
<feFlood flood-opacity="0" result="BackgroundImageFix"/>
<feColorMatrix in="SourceAlpha" type="matrix" values="0 0 0 0 0 0 0 0 0 0 0 0 0 0 0 0 0 0 127 0" result="hardAlpha"/>
<feOffset dy="5.28225"/>
<feGaussianBlur stdDeviation="29.28"/>
<feComposite in2="hardAlpha" operator="out"/>
<feColorMatrix type="matrix" values="0 0 0 0 0 0 0 0 0 0 0 0 0 0 0 0 0 0 0.16 0"/>
<feBlend mode="normal" in2="BackgroundImageFix" result="effect1_dropShadow_1427_50028"/>
<feBlend mode="normal" in="SourceGraphic" in2="effect1_dropShadow_1427_50028" result="shape"/>
</filter>
<linearGradient id="paint0_linear_1427_50028" x1="103.557" y1="310.815" x2="123.631" y2="351.742" gradientUnits="userSpaceOnUse">
<stop stop-color="#4CB68D"/>
<stop offset="1" stop-color="#398286"/>
</linearGradient>
<linearGradient id="paint1_linear_1427_50028" x1="145.475" y1="304.466" x2="120.085" y2="356.232" gradientUnits="userSpaceOnUse">
<stop stop-color="#4CB68D"/>
<stop offset="1" stop-color="#398286"/>
</linearGradient>
<linearGradient id="paint2_linear_1427_50028" x1="64.8806" y1="176.084" x2="123.97" y2="232.434" gradientUnits="userSpaceOnUse">
<stop stop-color="#CA8A04"/>
<stop offset="1" stop-color="#F2BA00"/>
</linearGradient>
<linearGradient id="paint3_linear_1427_50028" x1="69.1852" y1="171.39" x2="96.0641" y2="242.838" gradientUnits="userSpaceOnUse">
<stop stop-color="#CA8A04"/>
<stop offset="1" stop-color="#CA8A04" stop-opacity="0"/>
</linearGradient>
</defs>
</svg>
