<svg width="191" height="194" viewBox="0 0 191 194" fill="none" xmlns="http://www.w3.org/2000/svg">
<path d="M106.799 12.7861H83.6542C60.5656 12.7861 41.8486 31.5031 41.8486 54.5917V118.192C41.8486 141.28 60.5656 159.997 83.6542 159.997H106.799C129.887 159.997 148.604 141.28 148.604 118.192V54.5917C148.604 31.5031 129.887 12.7861 106.799 12.7861Z" fill="#FDF2E0"/>
<path d="M75.5824 118.909L66.8857 137.838L53.6507 166.645L38.1353 153.63C38.1353 153.63 49.4921 137.318 52.569 130.602C53.7249 128.073 55.0607 125.362 56.288 122.893C58.3202 118.794 60.0299 115.358 60.0299 114.584L75.5824 118.911V118.909Z" fill="#F7A68F"/>
<g opacity="0.26">
<path d="M66.8862 137.837C67.1774 135.388 67.36 133.153 67.1859 132.274C66.872 130.724 60.6612 126.077 56.2886 122.889C58.3208 118.791 60.0304 115.354 60.0304 114.581L75.583 118.908L66.8862 137.837Z" fill="#ED8A72"/>
</g>
<path d="M55.5151 158.123C55.478 159.81 55.3325 161.243 55.107 162.47C53.9082 168.829 50.4746 169.625 48.6479 171.078C47.9743 171.612 47.3749 172.248 46.864 172.942C42.9167 178.351 38.5183 181.054 36.0694 181.179C35.353 181.222 34.7965 181.034 34.4768 180.631C33.0668 178.87 37.1512 174.463 37.5907 173.995C36.8458 174.58 36.0266 175.282 35.1646 176.005L35.1561 176.013C31.8595 178.776 27.9349 181.918 25.2177 181.071C25.0922 181.034 24.978 180.982 24.861 180.931C21.5444 179.381 32.1478 170.014 32.7243 169.508C31.8481 170.21 31.0061 170.816 30.204 171.335L30.1898 171.349C25.7743 174.235 22.5177 174.637 20.4398 174.098H20.4312C18.5532 173.607 17.6455 172.343 17.7483 171.438C17.9738 169.391 31.3571 160.578 31.7796 160.301C31.7282 160.309 31.517 160.352 31.1659 160.426L31.1573 160.435C27.9207 161.1 13.173 163.9 12.2939 159.596C12.2425 159.347 12.2425 159.113 12.2939 158.879C13.0246 154.861 26.5963 152.557 26.5963 152.557C26.5963 152.557 36.5061 149.129 39.64 145.995C40.619 145.016 41.715 144.534 42.1974 144.146C42.6883 143.752 43.008 143.261 43.1992 142.625V142.616C43.733 140.832 43.2221 137.904 42.4771 132.815C41.461 125.916 44.7491 125.091 47.746 126.821C50.7486 128.559 52.6495 143.549 55.792 147.497C58.943 151.444 55.5151 158.123 55.5151 158.123Z" fill="#F7A68F"/>
<path d="M56.6058 155.542C56.583 155.542 56.5602 155.542 56.5373 155.534C56.3604 155.496 56.2462 155.322 56.2862 155.145C57.171 150.958 56.1092 148.566 54.8305 146.606C53.6004 144.719 51.551 136.978 51.4654 136.65C51.4197 136.476 51.5225 136.296 51.6995 136.251C51.8736 136.202 52.0534 136.308 52.099 136.482C52.119 136.562 54.2055 144.448 55.3785 146.249C56.7343 148.327 57.8617 150.861 56.9255 155.282C56.8941 155.437 56.7571 155.542 56.6058 155.542Z" fill="#ED8A72"/>
<g opacity="0.26">
<path d="M46.9732 155.63C42.9915 153.387 41.3761 146.546 41.3761 146.546L39.6436 145.989C40.7767 145.198 41.7186 144.528 42.2009 144.139C42.6918 143.746 43.0115 143.255 43.2027 142.618C43.7879 146.032 47.4355 155.882 46.9732 155.628V155.63Z" fill="#ED8A72"/>
</g>
<g opacity="0.26">
<path d="M31.1573 160.435C27.9207 161.1 13.173 163.9 12.2939 159.596C12.2425 159.347 12.2425 159.113 12.2939 158.879C13.9893 159.253 16.3355 159.596 18.733 159.596C23.0885 159.596 34.0372 158.06 34.0372 158.06L38.1359 157.25L31.1631 160.429L31.1545 160.438L31.1573 160.435Z" fill="#ED8A72"/>
</g>
<g opacity="0.26">
<path d="M30.185 171.352C25.7696 174.238 22.5129 174.64 20.4351 174.101C23.3521 173.29 31.5436 168.94 31.5436 168.94L38.6335 163.466L30.1993 171.338L30.185 171.352Z" fill="#ED8A72"/>
</g>
<g opacity="0.26">
<path d="M40.2546 171.174L35.1598 176.003L35.1512 176.012C31.8546 178.775 27.9301 181.917 25.2129 181.069C27.2822 180.25 30.556 178.76 32.4112 176.897C35.2768 174.039 41.4961 168.442 41.4961 168.442L40.2546 171.177V171.174Z" fill="#ED8A72"/>
</g>
<g opacity="0.26">
<path d="M55.1069 162.473C53.9081 168.832 50.4745 169.629 48.6478 171.081C47.9742 171.615 47.3748 172.252 46.8639 172.945C42.9166 178.354 38.5182 181.057 36.0693 181.182C37.5079 180.326 38.8693 179.413 39.6428 178.648C41.8776 176.413 46.7326 171.041 48.214 169.549C49.6982 168.065 52.1956 167.962 53.6512 165.207C54.0308 164.491 54.5503 163.521 55.1069 162.473Z" fill="#ED8A72"/>
</g>
<path d="M48.5248 155.963C48.4563 155.963 48.3907 155.943 48.3307 155.9C42.6252 151.707 43.3016 144.532 43.3102 144.46C43.3273 144.281 43.4843 144.149 43.6698 144.169C43.8496 144.186 43.9809 144.349 43.9609 144.529C43.9552 144.597 43.3216 151.408 48.7189 155.375C48.8645 155.483 48.8959 155.686 48.7902 155.832C48.7275 155.917 48.6276 155.966 48.5277 155.966L48.5248 155.963Z" fill="#ED8A72"/>
<path d="M31.7784 160.63C31.5986 160.63 31.4502 160.484 31.4502 160.301C31.4502 160.119 31.5958 159.976 31.7727 159.973C32.178 159.933 34.9837 158.529 37.4697 157.19C37.6295 157.105 37.8265 157.165 37.9121 157.325C37.9977 157.484 37.9378 157.681 37.778 157.767C36.5307 158.438 32.4149 160.627 31.7756 160.627L31.7784 160.63Z" fill="#ED8A72"/>
<path d="M32.1169 169.877C32.0199 169.877 31.9257 169.837 31.8629 169.757C31.7487 169.617 31.7716 169.412 31.9114 169.297L39.438 163.215C39.5778 163.101 39.7833 163.124 39.8975 163.264C40.0117 163.403 39.9888 163.609 39.849 163.723L32.3224 169.805C32.2625 169.854 32.1883 169.877 32.1169 169.877Z" fill="#ED8A72"/>
<path d="M38.6343 173.042C38.5544 173.042 38.4716 173.013 38.4088 172.951C38.2775 172.825 38.2718 172.62 38.3974 172.488L42.0393 168.658C42.1649 168.527 42.3704 168.524 42.5017 168.647C42.633 168.772 42.6387 168.978 42.5131 169.109L38.8712 172.939C38.8055 173.008 38.7199 173.042 38.6343 173.042Z" fill="#ED8A72"/>
<path d="M115.301 118.909L123.998 137.838L137.232 166.645L152.748 153.63C152.748 153.63 141.391 137.318 138.314 130.602C137.158 128.073 135.823 125.362 134.595 122.893C132.563 118.794 130.853 115.358 130.853 114.584L115.301 118.911V118.909Z" fill="#F7A68F"/>
<g opacity="0.26">
<path d="M123.999 137.837C123.707 135.388 123.525 133.153 123.699 132.274C124.013 130.724 130.224 126.077 134.596 122.889C132.564 118.791 130.854 115.354 130.854 114.581L115.302 118.908L123.999 137.837Z" fill="#ED8A72"/>
</g>
<path d="M135.369 158.123C135.406 159.81 135.552 161.243 135.777 162.47C136.976 168.829 140.41 169.625 142.236 171.078C142.91 171.612 143.509 172.248 144.02 172.942C147.968 178.351 152.366 181.054 154.815 181.179C155.531 181.222 156.088 181.034 156.408 180.631C157.818 178.87 153.733 174.463 153.294 173.995C154.039 174.58 154.858 175.282 155.72 176.005L155.728 176.013C159.025 178.776 162.949 181.918 165.667 181.071C165.792 181.034 165.906 180.982 166.023 180.931C169.34 179.381 158.737 170.014 158.16 169.508C159.036 170.21 159.878 170.816 160.68 171.335L160.695 171.349C165.11 174.235 168.367 174.637 170.445 174.098H170.453C172.331 173.607 173.239 172.343 173.136 171.438C172.911 169.391 159.527 160.578 159.105 160.301C159.156 160.309 159.367 160.352 159.718 160.426L159.727 160.435C162.964 161.1 177.711 163.9 178.59 159.596C178.642 159.347 178.642 159.113 178.59 158.879C177.86 154.861 164.288 152.557 164.288 152.557C164.288 152.557 154.378 149.129 151.244 145.995C150.265 145.016 149.169 144.534 148.687 144.146C148.196 143.752 147.876 143.261 147.685 142.625V142.616C147.151 140.832 147.662 137.904 148.407 132.815C149.423 125.916 146.135 125.091 143.138 126.821C140.136 128.559 138.235 143.549 135.092 147.497C131.941 151.444 135.369 158.123 135.369 158.123Z" fill="#F7A68F"/>
<path d="M134.279 155.544C134.128 155.544 133.991 155.438 133.96 155.284C133.024 150.863 134.151 148.331 135.507 146.251C136.68 144.452 138.766 136.563 138.786 136.486C138.832 136.312 139.012 136.207 139.186 136.252C139.36 136.298 139.466 136.478 139.42 136.652C139.334 136.98 137.288 144.724 136.055 146.61C134.776 148.571 133.714 150.963 134.602 155.15C134.639 155.327 134.528 155.501 134.351 155.538C134.328 155.544 134.305 155.547 134.282 155.547L134.279 155.544Z" fill="#ED8A72"/>
<g opacity="0.26">
<path d="M143.916 155.63C147.897 153.387 149.513 146.546 149.513 146.546L151.245 145.989C150.112 145.198 149.17 144.528 148.688 144.139C148.197 143.746 147.878 143.255 147.686 142.618C147.101 146.032 143.454 155.882 143.916 155.628V155.63Z" fill="#ED8A72"/>
</g>
<g opacity="0.26">
<path d="M159.727 160.435C162.963 161.1 177.711 163.9 178.59 159.596C178.641 159.347 178.641 159.113 178.59 158.879C176.895 159.253 174.548 159.596 172.151 159.596C167.795 159.596 156.847 158.06 156.847 158.06L152.748 157.25L159.721 160.429L159.729 160.438L159.727 160.435Z" fill="#ED8A72"/>
</g>
<g opacity="0.26">
<path d="M160.7 171.352C165.115 174.238 168.372 174.64 170.45 174.101C167.533 173.29 159.341 168.94 159.341 168.94L152.251 163.466L160.686 171.338L160.7 171.352Z" fill="#ED8A72"/>
</g>
<g opacity="0.26">
<path d="M150.63 171.174L155.725 176.003L155.733 176.012C159.03 178.775 162.954 181.917 165.671 181.069C163.602 180.25 160.328 178.76 158.473 176.897C155.608 174.039 149.388 168.442 149.388 168.442L150.63 171.177V171.174Z" fill="#ED8A72"/>
</g>
<g opacity="0.26">
<path d="M135.779 162.473C136.978 168.832 140.412 169.629 142.238 171.081C142.912 171.615 143.511 172.252 144.022 172.945C147.97 178.354 152.368 181.057 154.817 181.182C153.378 180.326 152.017 179.413 151.243 178.648C149.009 176.413 144.154 171.041 142.672 169.549C141.188 168.065 138.691 167.962 137.235 165.207C136.855 164.491 136.336 163.521 135.779 162.473Z" fill="#ED8A72"/>
</g>
<path d="M142.359 155.962C142.259 155.962 142.159 155.916 142.096 155.828C141.987 155.682 142.019 155.477 142.164 155.371C147.562 151.406 146.928 144.594 146.922 144.525C146.905 144.345 147.034 144.185 147.214 144.165C147.39 144.143 147.553 144.277 147.573 144.457C147.579 144.528 148.258 151.706 142.553 155.896C142.496 155.939 142.427 155.959 142.359 155.959V155.962Z" fill="#ED8A72"/>
<path d="M159.107 160.63C158.468 160.63 154.352 158.441 153.105 157.77C152.945 157.684 152.885 157.485 152.971 157.328C153.056 157.168 153.256 157.108 153.413 157.194C155.902 158.532 158.713 159.939 159.11 159.976C159.284 159.994 159.427 160.142 159.418 160.316C159.41 160.49 159.278 160.63 159.101 160.63H159.107Z" fill="#ED8A72"/>
<path d="M158.77 169.877C158.699 169.877 158.625 169.854 158.565 169.805L151.038 163.723C150.899 163.609 150.876 163.403 150.99 163.264C151.104 163.124 151.31 163.101 151.449 163.215L158.976 169.297C159.116 169.412 159.139 169.617 159.024 169.757C158.959 169.837 158.865 169.877 158.77 169.877Z" fill="#ED8A72"/>
<path d="M152.252 173.042C152.166 173.042 152.078 173.008 152.015 172.939L148.373 169.109C148.247 168.978 148.253 168.769 148.384 168.647C148.516 168.524 148.724 168.527 148.847 168.658L152.489 172.488C152.614 172.62 152.609 172.828 152.477 172.951C152.415 173.011 152.332 173.042 152.252 173.042Z" fill="#ED8A72"/>
<path d="M102.906 80.2012H88.167V94.3809H102.906V80.2012Z" fill="#ED8A72"/>
<path d="M119.524 127.912L119.716 173.077L96.4026 174.034V174.099L95.532 174.071L94.6701 174.099V174.034L71.3569 173.077L71.5253 133.373L71.5481 127.738L64.1301 124.953L53.6494 121.02C53.6494 121.02 62.1207 101.608 65.2632 97.5095C68.4057 93.4023 88.2681 87.103 88.2681 87.103L95.532 93.9588L102.805 87.103C102.805 87.103 122.667 93.4023 125.809 97.5095C128.952 101.608 137.423 121.02 137.423 121.02L119.524 127.735V127.91V127.912Z" fill="#E37712"/>
<g opacity="0.64">
<path d="M111.008 129.908L119.522 127.913L119.713 173.078L96.4001 174.034V174.1L95.5296 174.071L94.6676 174.1V174.034L71.3545 173.078L71.5229 133.373C74.1459 132.797 76.2066 132.357 76.2066 132.357C76.2066 132.357 79.4519 138.634 80.9418 147.259L84.3611 147.245C83.6818 146.44 83.2565 145.404 83.2423 144.262C83.1909 141.639 85.2887 139.467 87.9117 139.416C88.591 139.407 89.2332 139.541 89.8183 139.781C91.7478 140.358 93.172 142.133 93.2091 144.254C93.232 145.372 92.8666 146.403 92.2359 147.222L103.307 147.193L107.335 135.682L98.929 137.415C99.1202 138.225 99.2515 139.19 99.2857 140.229C99.3942 143.138 98.7663 145.527 97.8758 145.558C97.7302 145.718 96.8226 145.601 96.6542 145.609C95.7636 145.638 94.9588 143.306 94.8503 140.398C94.8218 139.63 94.8417 138.899 94.9074 138.243L92.7525 138.688C92.7525 138.688 92.4899 135.391 91.5023 130.956C91.3425 130.964 91.1798 130.956 91.0114 130.933L86.5018 130.282C87.3124 130.756 88.2343 131.472 89.139 132.357C91.2141 134.404 92.39 136.567 91.7706 137.204C91.7706 137.423 91.0314 137.957 90.9144 138.074C90.2921 138.711 88.1001 137.569 86.0251 135.531C83.9501 133.493 82.7742 131.321 83.3935 130.685C83.4506 130.628 83.8616 130.16 84.0957 129.931L76.2409 128.798C74.9394 128.607 74.0403 127.402 74.223 126.095L74.7481 122.485L75.0764 120.213L75.1192 119.89C75.3104 118.589 76.5149 117.684 77.8164 117.872L87.5207 119.276C86.0651 116.368 84.2241 113.665 81.8922 111.604L100.359 107.352C103.159 111.065 110.297 127.157 110.991 129.911L111.008 129.908Z" fill="#D2500E"/>
</g>
<path d="M80.6177 66.1611C80.6177 66.1611 79.9327 63.207 77.9434 63.952C75.954 64.6969 75.5801 66.1897 75.5801 67.8708C75.5801 69.5519 76.8074 72.8 78.1003 74.0901C79.3904 75.3802 82.3617 75.4573 82.3617 75.4573L80.6206 66.1583L80.6177 66.1611Z" fill="#ED8A72"/>
<path d="M110.456 66.1611C110.456 66.1611 111.141 63.207 113.13 63.952C115.12 64.6969 115.494 66.1897 115.494 67.8708C115.494 69.5519 114.266 72.8 112.973 74.0901C111.683 75.3802 108.712 75.4573 108.712 75.4573L110.453 66.1583L110.456 66.1611Z" fill="#ED8A72"/>
<path d="M111.171 56.7402L107.906 45.8257L95.5355 48.4829L83.1654 45.8257L79.9002 56.7402C79.6205 57.0199 79.7147 73.4401 81.4871 76.4256C83.2196 79.3426 88.9566 86.1727 95.31 86.4867V86.501C95.3843 86.501 95.4613 86.4953 95.5355 86.4924C95.6097 86.4924 95.6868 86.501 95.761 86.501V86.4867C102.114 86.1727 107.851 79.3426 109.584 76.4256C111.356 73.4401 111.451 57.0199 111.171 56.7402Z" fill="#F7A68F"/>
<path d="M95.5333 93.9613H95.5191L95.5105 93.9527C95.1452 93.8728 90.841 92.9366 88.1666 95.611C86.26 97.5176 86.026 96.8241 86.026 96.8241C86.026 96.8241 83.3801 92.5713 85.1554 89.1862C85.6892 88.1644 86.6311 87.2197 88.1666 86.4976L92.368 90.7589L95.5191 93.9442L95.5333 93.9585V93.9613Z" fill="white"/>
<path d="M106.474 92.4686C106.262 94.8147 105.012 96.8241 105.012 96.8241C105.012 96.8241 104.787 97.5176 102.872 95.611C100.197 92.9366 95.8931 93.8728 95.5277 93.9527C95.5277 93.9527 95.5192 93.9527 95.5192 93.9613H95.5049L95.5134 93.9527L95.522 93.9442L99.7234 89.6914L102.874 86.4976C106.008 87.9675 106.659 90.3564 106.476 92.4686H106.474Z" fill="white"/>
<path d="M88.1683 86.4976L92.3697 90.7589C90.7029 90.188 88.7363 89.5173 87.7573 89.1291C86.9325 88.8066 85.9735 88.9379 85.1543 89.1862C85.688 88.1644 86.6299 87.2197 88.1655 86.4976H88.1683Z" fill="#E5CCE5"/>
<path d="M106.473 92.4686C105.799 91.0586 104.786 89.3175 103.659 88.9379C102.854 88.6668 101.284 89.092 99.7197 89.6914L102.871 86.4976C106.005 87.9675 106.655 90.3564 106.473 92.4686Z" fill="#E5CCE5"/>
<path d="M114.147 47.7264C116.813 50.9116 113.927 64.3492 113.927 64.3492C113.596 64.3521 113.179 63.8098 112.66 63.8355C112.012 63.864 111.17 64.9486 111.17 64.9486C111.244 62.7652 108.881 54.6821 108.881 54.6821C102.764 56.9968 82.7279 54.0713 82.7279 54.0713C80.8099 56.7257 79.928 65.7649 79.928 65.7649C79.8281 65.4709 79.4542 64.4406 79.3457 64.2636C78.9461 63.6785 78.4752 63.5643 78.2868 62.7138C76.012 51.8707 81.8859 45.9225 81.8859 45.9225C82.9049 42.7886 85.7277 41.096 89.167 40.3254C94.9896 39.0182 102.579 40.3254 106.081 41.7211C111.647 43.9417 115.486 44.758 115.486 44.758C114.227 47.5608 114.141 47.7406 114.141 47.7292L114.147 47.7264Z" fill="#2B3340"/>
<path d="M91.0713 48.0828C91.0713 48.0828 86.7929 52.3926 86.145 50.5802C85.4971 48.7678 83.3079 48.8506 81.6953 50.8142C80.2596 52.5696 78.6498 59.2456 79.3491 64.2604C78.9495 63.6753 78.49 64.1805 78.2902 63.3299C75.5758 51.7875 81.8893 45.9164 81.8893 45.9164C82.9083 42.7825 85.7311 41.09 89.1704 40.3193C87.1611 41.7464 85.1374 43.6245 84.9548 45.0687C84.6094 47.7745 89.0134 43.3362 87.7319 46.6699C86.4504 50.0151 91.0685 48.0799 91.0685 48.0799L91.0713 48.0828Z" fill="#2B3340"/>
<g opacity="0.64">
<path d="M71.5485 127.738L64.1304 124.955L67.9293 116.513L70.1585 101.394L71.5485 127.738Z" fill="#D2500E"/>
</g>
<g opacity="0.64">
<path d="M119.673 127.738L127.091 124.955L123.292 116.513L121.063 101.394L119.673 127.738Z" fill="#D2500E"/>
</g>
<path d="M82.4932 107.958C92.3915 116.683 93.9642 136.568 93.9642 136.568L114.258 132.387C114.258 132.387 112.451 117.314 102.005 103.462L82.496 107.958H82.4932Z" fill="#FDF2E0"/>
<path d="M82.4932 107.958C92.3915 116.683 93.9642 136.568 93.9642 136.568L114.258 132.387C114.258 132.387 112.451 117.314 102.005 103.462L82.496 107.958H82.4932Z" fill="#FDF2E0"/>
<path d="M88.4129 111.337C88.1874 111.337 87.9791 111.188 87.9134 110.96C87.8335 110.686 87.9962 110.398 88.2702 110.321L100.05 106.961C100.329 106.884 100.612 107.044 100.689 107.318C100.769 107.592 100.606 107.88 100.047 107.957L88.2674 111.317C88.5043 111.331 88.4586 111.337 88.4101 111.337H88.4129Z" fill="#E37712"/>
<path d="M89.6922 114.697C89.4667 114.697 89.2584 114.548 89.1927 114.32C89.1128 114.046 89.2755 113.758 89.5495 113.681L101.329 110.321C101.609 110.241 101.891 110.404 101.968 110.678C102.048 110.952 101.885 111.24 101.326 111.317L89.5467 114.677C89.7836 114.691 89.7379 114.697 89.6894 114.697H89.6922Z" fill="#E37712"/>
<path d="M90.9435 117.739C90.7181 117.739 90.5097 117.591 90.444 117.362C90.3641 117.088 90.5268 116.8 90.5154 116.723L102.298 113.364C102.863 113.284 103.145 113.446 103.222 113.72C103.302 113.994 103.14 114.283 102.866 114.36L91.0834 117.719C91.0349 117.733 90.9864 117.739 90.9407 117.739H90.9435Z" fill="#E37712"/>
<path d="M93.793 116.835L78.1911 114.582C76.8135 114.383 75.5355 115.338 75.3364 116.716L74.3897 123.269C74.1907 124.647 75.1461 125.925 76.5237 126.124L92.1256 128.378C93.5032 128.577 94.7813 127.621 94.9803 126.244L95.927 119.69C96.126 118.312 95.1706 117.034 93.793 116.835Z" fill="#2B3340"/>
<path d="M95.8796 120.024L75.2891 117.05L74.9422 119.451L95.5328 122.425L95.8796 120.024Z" fill="#6D28D9"/>
<path d="M94.2243 122.993L91.4531 122.593L91.2217 124.194L93.993 124.595L94.2243 122.993Z" fill="#E37712"/>
<path d="M56.5244 152.866L70.2103 145.75L74.797 158.959L69.1999 165.558H61.0826L56.5244 152.866Z" fill="#2B3340"/>
<path d="M135.806 154.327L122.414 147.1L117.533 160.421L123.13 167.02H131.248L135.806 154.327Z" fill="#2B3340"/>
<path d="M121.785 162.616H71.3829C70.4867 162.616 69.7617 161.891 69.7617 160.995V147.132C69.7617 146.236 69.8188 145.656 70.715 145.656L121.785 145.514C122.682 145.514 123.407 146.239 123.407 147.135V160.998C123.407 161.894 122.682 162.619 121.785 162.619V162.616Z" fill="#2B3340"/>
<path d="M86.8579 133.234C84.663 131.079 83.4214 128.787 84.0779 128.117C84.1549 128.04 84.8628 127.226 84.9798 127.198C85.8789 126.975 87.3031 128.899 89.244 130.805C91.025 132.555 92.9059 134.016 92.9259 135.004C92.9316 135.232 92.1467 135.797 92.024 135.923C91.3646 136.594 89.0527 135.389 86.8579 133.234Z" fill="#F9A119"/>
<path d="M92.925 134.998C93.5846 134.327 92.3411 132.035 90.1475 129.88C87.954 127.724 85.641 126.521 84.9814 127.192C84.3218 127.863 85.5653 130.155 87.7589 132.31C89.9524 134.466 92.2654 135.669 92.925 134.998Z" fill="#F7D221"/>
<path d="M92.4929 133.866C92.9105 133.441 91.7743 131.648 89.9552 129.86C88.136 128.072 86.3228 126.968 85.9051 127.393C85.4875 127.818 86.6236 129.611 88.4428 131.399C90.2619 133.187 92.0752 134.291 92.4929 133.866Z" fill="#F9A119"/>
<path d="M87.1602 128.459L91.2988 132.087L91.2074 132.189L87.0688 128.562L87.1602 128.459ZM90.2827 130.58C90.4682 130.742 90.6166 130.902 90.7308 131.059C90.8421 131.216 90.9106 131.359 90.9363 131.49C90.962 131.619 90.9363 131.724 90.8678 131.804C90.8022 131.878 90.708 131.913 90.5852 131.901C90.4625 131.893 90.3198 131.844 90.1571 131.758C89.9944 131.673 89.8146 131.547 89.6234 131.385L89.7604 131.228C89.9316 131.373 90.08 131.464 90.2028 131.504C90.3284 131.544 90.4197 131.53 90.4796 131.462C90.5453 131.387 90.5481 131.285 90.491 131.156C90.434 131.028 90.3226 130.891 90.1571 130.745C90.0258 130.628 89.9059 130.548 89.8003 130.503C89.6947 130.457 89.5977 130.446 89.5063 130.468L89.2124 130.551C89.0668 130.597 88.9013 130.58 88.7186 130.503C88.5331 130.426 88.3304 130.289 88.1049 130.089C87.9108 129.917 87.7539 129.752 87.6397 129.592C87.5255 129.432 87.457 129.287 87.4313 129.155C87.4085 129.024 87.4313 128.919 87.5055 128.836C87.5741 128.756 87.6711 128.719 87.7995 128.724C87.9251 128.73 88.0707 128.773 88.2391 128.861C88.4046 128.947 88.5816 129.067 88.77 129.224L88.6272 129.387C88.4674 129.247 88.3218 129.161 88.1877 129.124C88.0564 129.087 87.9565 129.104 87.8937 129.178C87.8252 129.258 87.8195 129.364 87.8766 129.495C87.9337 129.626 88.0421 129.763 88.2048 129.906C88.4674 130.134 88.6815 130.226 88.8499 130.18L89.1439 130.097C89.2866 130.054 89.455 130.074 89.6462 130.154C89.8374 130.234 90.0486 130.377 90.2798 130.58H90.2827Z" fill="#F7D221"/>
<path d="M96.1787 138.379C96.0646 135.305 96.7324 132.784 97.6743 132.75C97.7828 132.747 98.856 132.642 98.9616 132.701C99.7693 133.158 99.4839 135.533 99.5838 138.253C99.678 140.747 100.04 143.102 99.3754 143.833C99.2213 144.001 98.2651 143.873 98.0882 143.881C97.1492 143.916 96.2929 141.452 96.1787 138.379Z" fill="#F9A119"/>
<path d="M99.3726 143.833C100.313 143.798 100.983 141.279 100.868 138.205C100.754 135.132 99.8991 132.669 98.9586 132.704C98.0182 132.739 97.3485 135.259 97.4628 138.332C97.5771 141.405 98.4322 143.868 99.3726 143.833Z" fill="#F7D221"/>
<path d="M99.8326 142.712C100.428 142.69 100.834 140.605 100.739 138.057C100.644 135.508 100.085 133.46 99.4893 133.482C98.8938 133.504 98.488 135.588 98.5828 138.137C98.6776 140.686 99.2371 142.734 99.8326 142.712Z" fill="#F9A119"/>
<path d="M99.6784 135.114L100.195 140.591L100.058 140.606L99.5414 135.129L99.6784 135.114ZM100.492 138.799C100.515 139.044 100.515 139.264 100.486 139.456C100.46 139.647 100.412 139.798 100.341 139.909C100.269 140.021 100.181 140.081 100.075 140.092C99.9752 140.101 99.8867 140.061 99.804 139.969C99.7212 139.878 99.6498 139.747 99.5899 139.57C99.53 139.396 99.4871 139.182 99.4586 138.933L99.667 138.913C99.6926 139.136 99.7355 139.304 99.8011 139.418C99.8639 139.533 99.941 139.587 100.032 139.578C100.132 139.57 100.204 139.498 100.252 139.364C100.301 139.23 100.312 139.056 100.292 138.836C100.275 138.662 100.244 138.519 100.198 138.414C100.152 138.308 100.089 138.231 100.007 138.188L99.7355 138.046C99.5985 137.977 99.49 137.851 99.4101 137.669C99.3302 137.486 99.2759 137.246 99.2474 136.947C99.2217 136.687 99.2246 136.461 99.2502 136.267C99.2759 136.073 99.3273 135.919 99.3987 135.808C99.47 135.697 99.5614 135.637 99.6727 135.625C99.7783 135.617 99.8725 135.657 99.9609 135.745C100.049 135.834 100.124 135.968 100.186 136.145C100.249 136.322 100.295 136.53 100.323 136.773L100.109 136.793C100.087 136.581 100.041 136.419 99.9724 136.299C99.901 136.182 99.8182 136.127 99.7212 136.136C99.6156 136.145 99.5414 136.219 99.49 136.353C99.4415 136.487 99.4272 136.664 99.4472 136.878C99.4814 137.224 99.5728 137.438 99.7269 137.52L99.998 137.663C100.132 137.732 100.241 137.86 100.323 138.051C100.406 138.242 100.463 138.491 100.492 138.796V138.799Z" fill="#F7D221"/>
<path d="M93.9379 142.913C94.2337 140.15 92.2334 137.67 89.4701 137.374C86.7068 137.078 84.2269 139.079 83.9311 141.842C83.6353 144.605 85.6356 147.085 88.3989 147.381C91.1622 147.677 93.6421 145.676 93.9379 142.913Z" fill="#F9A119"/>
<path d="M89.4118 147.581C92.1909 147.581 94.4438 145.328 94.4438 142.549C94.4438 139.77 92.1909 137.517 89.4118 137.517C86.6328 137.517 84.3799 139.77 84.3799 142.549C84.3799 145.328 86.6328 147.581 89.4118 147.581Z" fill="#F7D221"/>
<path d="M89.4117 146.148C91.3994 146.148 93.0108 144.537 93.0108 142.549C93.0108 140.561 91.3994 138.95 89.4117 138.95C87.4239 138.95 85.8125 140.561 85.8125 142.549C85.8125 144.537 87.4239 146.148 89.4117 146.148Z" fill="#F9A119"/>
<path d="M88.3865 141.135C88.4664 140.893 88.5948 140.701 88.7775 140.556C88.9573 140.413 89.1771 140.325 89.4282 140.296C89.6823 140.268 89.9534 140.299 90.2417 140.393C90.51 140.482 90.7298 140.604 90.901 140.767C91.0723 140.93 91.1836 141.115 91.2435 141.329C91.3006 141.543 91.2978 141.775 91.2321 142.026L90.6641 141.84C90.7241 141.618 90.7012 141.423 90.5985 141.261C90.4929 141.098 90.3188 140.975 90.0733 140.895C89.805 140.807 89.5681 140.798 89.3655 140.873C89.1628 140.944 89.0258 141.09 88.9573 141.304C88.9002 141.475 88.9031 141.632 88.9659 141.769C89.0287 141.909 89.1542 142.037 89.3455 142.154L89.9877 142.545C90.313 142.739 90.5328 142.956 90.6441 143.196C90.7555 143.439 90.764 143.704 90.667 143.998C90.5842 144.252 90.4501 144.452 90.2674 144.6C90.0819 144.749 89.8621 144.834 89.6052 144.863C89.3483 144.891 89.0686 144.857 88.7689 144.757C88.4835 144.663 88.2495 144.535 88.0639 144.369C87.8784 144.203 87.7528 144.009 87.6872 143.792C87.6215 143.576 87.6215 143.344 87.6815 143.102L88.2666 143.293C88.2038 143.501 88.2323 143.693 88.3522 143.864C88.4721 144.038 88.6662 144.166 88.9316 144.255C89.217 144.349 89.4625 144.358 89.6737 144.286C89.8821 144.215 90.0219 144.072 90.0904 143.861C90.2017 143.521 90.0733 143.239 89.7051 143.016L89.0629 142.625C88.7461 142.434 88.5292 142.214 88.415 141.963C88.3008 141.712 88.2923 141.435 88.3893 141.135H88.3865ZM88.4521 145.208L90.2074 139.831L90.5813 139.954L88.826 145.331L88.4521 145.208Z" fill="#F7D221"/>
<path d="M59.8685 133.767C59.2862 133.545 76.4742 129.883 76.4742 129.883C76.4742 129.883 82.7221 141.97 82.2312 155.913L69.5385 154.258C69.5385 154.258 64.8747 135.674 59.8656 133.767H59.8685Z" fill="#008744"/>
<path d="M82.9098 153.765C82.9098 153.765 77.6866 140.177 65.8673 136.569L53.4287 144.158C53.4287 144.158 66.2412 148.636 70.9678 158.96L82.9098 153.765Z" fill="#24A452"/>
<path d="M134.982 124.404C135.838 124.079 110.53 118.684 110.53 118.684C110.53 118.684 101.331 136.483 102.05 157.013L120.74 154.576C120.74 154.576 127.607 127.212 134.982 124.404Z" fill="#008744"/>
<path d="M101.05 153.849C101.05 153.849 108.742 133.839 126.144 128.527L144.46 139.701C144.46 139.701 125.594 146.294 118.632 161.499L101.047 153.849H101.05Z" fill="#24A452"/>
<path d="M137.029 154.994V176.115C137.029 177.482 135.919 178.584 134.56 178.584H57.7649C56.4063 178.584 55.3018 177.479 55.3018 176.115V154.994C55.3018 153.635 56.4063 152.531 57.7649 152.531H134.557C135.916 152.531 137.026 153.635 137.026 154.994H137.029Z" fill="#3B404A"/>
<path d="M137.029 154.994V176.115C137.029 177.482 135.919 178.584 134.56 178.584H57.7649C56.4063 178.584 55.3018 177.479 55.3018 176.115V154.994C55.3018 153.635 56.4063 152.531 57.7649 152.531H134.557C135.916 152.531 137.026 153.635 137.026 154.994H137.029Z" fill="#3B404A"/>
<g opacity="0.32">
<path d="M137.03 154.994V176.116C137.03 177.483 135.92 178.584 134.561 178.584H107.946C113.069 170.399 107.107 159.35 92.9269 157.244C86.1082 156.236 79.7062 154.452 74.3203 152.531H134.561C135.92 152.531 137.03 153.636 137.03 154.994Z" fill="#333232"/>
</g>
<g opacity="0.32">
<path d="M137.03 154.994V176.116C137.03 177.483 135.92 178.584 134.561 178.584H107.946C113.069 170.399 107.107 159.35 92.9269 157.244C86.1082 156.236 79.7062 154.452 74.3203 152.531H134.561C135.92 152.531 137.03 153.636 137.03 154.994Z" fill="#333232"/>
</g>
<path d="M42.6922 108.654L46.6167 109.465L43.2573 109.987C40.5259 110.412 38.3481 112.487 37.7887 115.193L37.1008 125.049L36.5785 115.165C36.1532 112.433 34.0782 110.255 31.3724 109.696L28.0444 109.008L32.0061 108.392C34.3751 108.023 36.2645 106.222 36.7498 103.876L37.5604 99.9517L38.1769 103.913C38.5451 106.282 40.3461 108.172 42.6922 108.657V108.654Z" fill="#FACC15"/>
<path d="M61.9845 76.0511L63.8283 76.4307L62.25 76.6762C60.9684 76.876 59.9438 77.8492 59.6812 79.1222L59.3586 83.7517L59.1132 79.1079C58.9134 77.8264 57.9401 76.8017 56.6671 76.5392L55.103 76.2166L56.964 75.9284C58.0771 75.7543 58.9648 74.9094 59.1931 73.8077L59.5727 71.9639L59.861 73.8248C60.0351 74.938 60.8799 75.8256 61.9817 76.0539L61.9845 76.0511Z" fill="#FACC15"/>
<path d="M139.04 89.5555L140.884 89.9351L139.305 90.1806C138.024 90.3804 136.999 91.3536 136.736 92.6266L136.414 97.2561L136.168 92.6123C135.969 91.3308 134.995 90.3061 133.722 90.0436L132.158 89.721L134.019 89.4328C135.132 89.2586 136.02 88.4138 136.248 87.3121L136.628 85.4683L136.916 87.3292C137.09 88.4423 137.935 89.33 139.037 89.5583L139.04 89.5555Z" fill="#FACC15"/>
</svg>
